<svg width="216" height="53" viewBox="0 0 216 53" fill="none" xmlns="http://www.w3.org/2000/svg">
<path d="M62.2041 19.5984H65.4914V34.0611H62.2041V27.9254H56.6833V34.0611H53.396V19.5984H56.6833V25.1285H62.2041V19.5984Z" fill="white"/>
<path d="M73.2291 26.7285C73.2291 27.4401 73.3161 28.0824 73.4906 28.6549C73.6652 29.2277 73.9168 29.7197 74.2451 30.1315C74.5726 30.5438 74.9744 30.861 75.4495 31.0842C75.924 31.3082 76.4685 31.4201 77.0833 31.4201C77.6834 31.4201 78.2247 31.3082 78.7068 31.0842C79.188 30.861 79.5933 30.5438 79.9211 30.1315C80.2491 29.7197 80.501 29.2277 80.6756 28.6549C80.8501 28.0824 80.9374 27.4401 80.9374 26.7285C80.9374 26.0159 80.8501 25.3702 80.6756 24.7906C80.501 24.2114 80.2491 23.7161 79.9211 23.3038C79.5933 22.892 79.188 22.574 78.7068 22.3511C78.2247 22.1277 77.6834 22.0161 77.0833 22.0161C76.4685 22.0161 75.924 22.1312 75.4495 22.3614C74.9744 22.5918 74.5726 22.9131 74.2451 23.3252C73.9168 23.7369 73.6652 24.2324 73.4906 24.8117C73.3161 25.3916 73.2291 26.0303 73.2291 26.7285ZM84.3095 26.7285C84.3095 27.9708 84.1241 29.0637 83.7548 30.0056C83.3842 30.9483 82.8778 31.7372 82.2358 32.3722C81.5935 33.0079 80.8288 33.4859 79.9422 33.8069C79.0556 34.1284 78.1022 34.2889 77.0833 34.2889C76.0915 34.2889 75.1563 34.1284 74.2765 33.8069C73.3966 33.4859 72.6284 33.0079 71.9723 32.3722C71.3156 31.7372 70.7996 30.9483 70.4223 30.0056C70.0454 29.0637 69.8564 27.9708 69.8564 26.7285C69.8564 25.4856 70.0521 24.3929 70.4431 23.4508C70.8338 22.5081 71.3613 21.7156 72.0247 21.0734C72.6875 20.4311 73.4558 19.9497 74.3289 19.6284C75.2011 19.3069 76.1196 19.1461 77.0833 19.1461C78.0744 19.1461 79.0099 19.3069 79.89 19.6284C80.7696 19.9497 81.5376 20.4311 82.1939 21.0734C82.85 21.7156 83.367 22.5081 83.7439 23.4508C84.1212 24.3929 84.3095 25.4856 84.3095 26.7285Z" fill="white"/>
<path d="M92.5262 31.5026C92.9869 31.5026 93.3674 31.4645 93.6676 31.3872C93.9678 31.3108 94.2088 31.2062 94.3901 31.0727C94.5714 30.9406 94.6974 30.7836 94.7674 30.6021C94.8374 30.4208 94.8722 30.2181 94.8722 29.9947C94.8722 29.5202 94.6485 29.1252 94.2018 28.8115C93.7549 28.497 92.9869 28.1587 91.8979 27.795C91.4228 27.6281 90.9481 27.4357 90.4733 27.2195C89.9985 27.0034 89.5726 26.731 89.1957 26.4028C88.819 26.0747 88.5115 25.6768 88.2743 25.2085C88.0367 24.7411 87.9181 24.1723 87.9181 23.502C87.9181 22.8316 88.0437 22.2278 88.2951 21.6904C88.5466 21.1527 88.9025 20.6958 89.3635 20.3183C89.8242 19.9411 90.3825 19.6521 91.0389 19.4491C91.6952 19.247 92.4351 19.1451 93.2593 19.1451C94.2367 19.1451 95.0817 19.2506 95.794 19.4597C96.5057 19.6691 97.0924 19.8998 97.5531 20.1511L96.6109 22.7271C96.2055 22.5177 95.755 22.3326 95.2597 22.1718C94.7639 22.0116 94.167 21.9308 93.469 21.9308C92.6867 21.9308 92.1246 22.0397 91.7825 22.2559C91.4404 22.4723 91.2691 22.8041 91.2691 23.2504C91.2691 23.516 91.3323 23.7398 91.458 23.9208C91.5834 24.1023 91.7617 24.2663 91.9919 24.4131C92.2224 24.5595 92.4878 24.6925 92.7883 24.8108C93.0879 24.9297 93.4198 25.0515 93.7833 25.1771C94.5369 25.4568 95.1933 25.7324 95.7521 26.0048C96.3103 26.2771 96.7749 26.5949 97.1451 26.9577C97.5147 27.3206 97.7906 27.7467 97.9725 28.2355C98.1535 28.7245 98.2446 29.3176 98.2446 30.0152C98.2446 31.3696 97.7695 32.4204 96.82 33.1672C95.8704 33.9146 94.4391 34.2883 92.5262 34.2883C91.8839 34.2883 91.3042 34.2496 90.7876 34.1729C90.2709 34.0956 89.8137 34.0016 89.4157 33.89C89.0179 33.7784 88.6755 33.6598 88.3891 33.5342C88.1029 33.4082 87.8622 33.2899 87.6665 33.1777L88.5885 30.581C89.0208 30.8188 89.5551 31.0314 90.1909 31.2194C90.8259 31.4083 91.6047 31.5026 92.5262 31.5026Z" fill="white"/>
<path d="M112.641 19.481V22.2666H108.263V33.9948H104.995V22.2666H100.617V19.481H112.641Z" fill="white"/>
<path d="M116.27 33.9951H119.537V19.481H116.27V33.9951Z" fill="white"/>
<path d="M134.164 33.9948C133.229 32.3334 132.217 30.6931 131.127 29.073C130.038 27.4532 128.879 25.9245 127.65 24.4862V33.9948H124.424V19.481H127.084C127.545 19.9414 128.055 20.5069 128.614 21.1772C129.172 21.8476 129.741 22.5633 130.321 23.3242C130.9 24.085 131.476 24.874 132.049 25.6905C132.621 26.5073 133.159 27.2924 133.662 28.0465V19.481H136.908V33.9948H134.164Z" fill="white"/>
<path d="M148.874 21.9943C147.352 21.9943 146.252 22.4166 145.575 23.2612C144.898 24.1061 144.559 25.2611 144.559 26.7277C144.559 27.4391 144.643 28.0854 144.81 28.6647C144.978 29.2437 145.23 29.7427 145.564 30.1618C145.9 30.5809 146.319 30.9057 146.821 31.1361C147.324 31.3663 147.91 31.4814 148.581 31.4814C148.943 31.4814 149.255 31.4744 149.513 31.4606C149.771 31.4469 149.998 31.419 150.194 31.3769V26.3297H153.461V33.5133C153.07 33.667 152.442 33.8307 151.576 34.005C150.71 34.1792 149.642 34.2671 148.371 34.2671C147.282 34.2671 146.294 34.0993 145.408 33.7646C144.52 33.4289 143.763 32.9407 143.135 32.2982C142.507 31.6563 142.021 30.867 141.679 29.9316C141.336 28.9968 141.166 27.9285 141.166 26.7277C141.166 25.5127 141.355 24.4376 141.732 23.5019C142.109 22.5668 142.625 21.7737 143.282 21.1248C143.938 20.4755 144.709 19.9835 145.596 19.6485C146.483 19.3131 147.429 19.145 148.434 19.145C149.118 19.145 149.736 19.191 150.288 19.2815C150.839 19.3726 151.314 19.4771 151.712 19.596C152.11 19.7144 152.439 19.8365 152.697 19.9624C152.955 20.0881 153.14 20.1862 153.252 20.2559L152.309 22.8734C151.862 22.6362 151.349 22.4306 150.77 22.2558C150.19 22.0812 149.559 21.9943 148.874 21.9943Z" fill="white"/>
<path d="M158.034 33.9948V19.481H167.837V22.2245H161.301V25.0725H167.103V27.7537H161.301V31.2513H168.319V33.9948H158.034Z" fill="white"/>
<path d="M176.702 22.0988C176.465 22.0988 176.253 22.1058 176.064 22.1196C175.876 22.1339 175.697 22.148 175.529 22.1615V26.0987H176.451C177.68 26.0987 178.56 25.9458 179.09 25.6383C179.621 25.3317 179.886 24.8077 179.886 24.0674C179.886 23.3552 179.618 22.8497 179.08 22.5486C178.542 22.249 177.75 22.0988 176.702 22.0988ZM176.514 19.3131C178.693 19.3131 180.361 19.7003 181.52 20.4755C182.679 21.2504 183.259 22.4546 183.259 24.0885C183.259 25.1073 183.025 25.9352 182.557 26.5705C182.09 27.2054 181.416 27.705 180.536 28.0675C180.829 28.431 181.136 28.8463 181.457 29.314C181.778 29.7819 182.096 30.2707 182.411 30.7803C182.725 31.2899 183.029 31.8202 183.322 32.3714C183.615 32.9234 183.887 33.4644 184.138 33.9947H180.485C180.219 33.52 179.949 33.0385 179.676 32.5498C179.403 32.0613 179.123 31.5862 178.835 31.1253C178.549 30.6643 178.264 30.2286 177.984 29.8168C177.703 29.4045 177.422 29.0311 177.143 28.6954H175.529V33.9947H172.262V19.6897C172.974 19.5509 173.711 19.4525 174.472 19.3972C175.233 19.3409 175.913 19.3131 176.514 19.3131Z" fill="white"/>
<path d="M9.70488 25.7072V9.47683L17.8983 13.8448V21.1573L28.7448 21.1626L37.0712 25.7072H9.70488ZM30.9629 19.8191V9.47625L39.3773 13.7355V24.7061L30.9629 19.8191ZM30.9629 39.6567V32.4072L20.0328 32.3996C20.043 32.4479 11.5682 27.7824 11.5682 27.7824L39.3773 27.9128V44.1429L30.9629 39.6567ZM9.70459 39.6567L9.70488 29.0505L17.8983 33.8218V43.9157L9.70459 39.6567Z" fill="white"/>
<path d="M186.66 33.4955C186.327 33.1489 186.16 32.7289 186.16 32.2355C186.16 31.7422 186.327 31.3289 186.66 30.9955C187.007 30.6489 187.427 30.4755 187.92 30.4755C188.413 30.4755 188.827 30.6489 189.16 30.9955C189.507 31.3289 189.68 31.7422 189.68 32.2355C189.68 32.7289 189.507 33.1489 189.16 33.4955C188.827 33.8289 188.413 33.9955 187.92 33.9955C187.427 33.9955 187.007 33.8289 186.66 33.4955ZM192.522 19.8555H195.642V33.8355H192.522V19.8555ZM208.864 19.8555H211.984V33.8355H208.864L202.204 25.0755V33.8355H199.084V19.8555H202.004L208.864 28.8555V19.8555Z" fill="white"/>
</svg>
