<svg width="90" height="107" viewBox="0 0 90 107" fill="none" xmlns="http://www.w3.org/2000/svg">
<rect y="67" width="90" height="40" fill="#F5F6F9"/>
<path d="M30.2441 77V72.016H31.3361V76.111H33.5621V77H30.2441ZM35.8192 77.056C35.4366 77.056 35.1052 76.9813 34.8252 76.832C34.5452 76.6827 34.3282 76.4703 34.1742 76.195C34.0249 75.915 33.9502 75.586 33.9502 75.208C33.9502 74.83 34.0249 74.5033 34.1742 74.228C34.3282 73.9527 34.5452 73.7403 34.8252 73.591C35.1052 73.437 35.4366 73.36 35.8192 73.36C36.1926 73.36 36.5192 73.437 36.7992 73.591C37.0792 73.7403 37.2939 73.9527 37.4432 74.228C37.5972 74.5033 37.6742 74.83 37.6742 75.208C37.6742 75.586 37.5972 75.915 37.4432 76.195C37.2939 76.4703 37.0792 76.6827 36.7992 76.832C36.5192 76.9813 36.1926 77.056 35.8192 77.056ZM35.8192 76.251C36.0759 76.251 36.2742 76.167 36.4142 75.999C36.5542 75.8263 36.6242 75.5627 36.6242 75.208C36.6242 74.858 36.5542 74.599 36.4142 74.431C36.2742 74.2583 36.0759 74.172 35.8192 74.172C35.5579 74.172 35.3549 74.2583 35.2102 74.431C35.0702 74.599 35.0002 74.858 35.0002 75.208C35.0002 75.5627 35.0702 75.8263 35.2102 75.999C35.3502 76.167 35.5532 76.251 35.8192 76.251ZM39.7429 77.056C39.4349 77.056 39.1619 76.9813 38.9239 76.832C38.6859 76.6827 38.5015 76.4703 38.3709 76.195C38.2402 75.9197 38.1749 75.5977 38.1749 75.229C38.1749 74.8603 38.2402 74.536 38.3709 74.256C38.5062 73.9713 38.6905 73.752 38.9239 73.598C39.1619 73.4393 39.4349 73.36 39.7429 73.36C40.0275 73.36 40.2795 73.43 40.4989 73.57C40.7182 73.71 40.8675 73.899 40.9469 74.137L40.8629 74.193V73.451H41.9059V77H40.8629V76.272L40.9469 76.286C40.8675 76.5287 40.7182 76.7177 40.4989 76.853C40.2795 76.9883 40.0275 77.056 39.7429 77.056ZM40.0509 76.251C40.3075 76.251 40.5059 76.1623 40.6459 75.985C40.7905 75.8077 40.8629 75.551 40.8629 75.215C40.8629 74.879 40.7905 74.6223 40.6459 74.445C40.5059 74.263 40.3075 74.172 40.0509 74.172C39.7942 74.172 39.5912 74.2653 39.4419 74.452C39.2972 74.6387 39.2249 74.8977 39.2249 75.229C39.2249 75.5603 39.2949 75.8147 39.4349 75.992C39.5795 76.1647 39.7849 76.251 40.0509 76.251ZM46.315 77H45.272V76.132L45.356 76.286C45.2767 76.5287 45.1274 76.7177 44.908 76.853C44.6887 76.9883 44.4367 77.056 44.152 77.056C43.844 77.056 43.571 76.979 43.333 76.825C43.0997 76.6663 42.9154 76.4493 42.78 76.174C42.6494 75.894 42.584 75.5673 42.584 75.194C42.584 74.8253 42.6494 74.5033 42.78 74.228C42.9107 73.9527 43.095 73.7403 43.333 73.591C43.571 73.437 43.844 73.36 44.152 73.36C44.4367 73.36 44.6887 73.4323 44.908 73.577C45.1274 73.717 45.2767 73.9037 45.356 74.137L45.258 74.263V71.848H46.315V77ZM44.46 76.251C44.7167 76.251 44.915 76.1623 45.055 75.985C45.1997 75.8077 45.272 75.5487 45.272 75.208C45.272 74.8813 45.1997 74.627 45.055 74.445C44.915 74.263 44.7167 74.172 44.46 74.172C44.194 74.172 43.9887 74.2607 43.844 74.438C43.704 74.6153 43.634 74.8673 43.634 75.194C43.634 75.5347 43.7064 75.796 43.851 75.978C44.0004 76.16 44.2034 76.251 44.46 76.251ZM50.355 77V72.905H48.794V72.016H53.022V72.905H51.461V77H50.355ZM53.5325 77V73.451H54.5895V77H53.5325ZM53.4905 71.785H54.6315V72.779H53.4905V71.785ZM55.4534 77V74.466C55.4534 74.298 55.4487 74.13 55.4394 73.962C55.4347 73.7893 55.4207 73.619 55.3974 73.451H56.3914L56.4684 74.144L56.3914 74.116C56.4894 73.878 56.6387 73.6937 56.8394 73.563C57.0447 73.4277 57.2897 73.36 57.5744 73.36C57.8964 73.36 58.1507 73.444 58.3374 73.612C58.5287 73.7753 58.6547 74.025 58.7154 74.361L58.5474 74.172C58.65 73.9293 58.8134 73.7333 59.0374 73.584C59.2614 73.4347 59.5157 73.36 59.8004 73.36C60.2064 73.36 60.5074 73.4837 60.7034 73.731C60.8994 73.9783 60.9974 74.3517 60.9974 74.851V77H59.9404V74.886C59.9404 74.6433 59.9007 74.466 59.8214 74.354C59.742 74.242 59.6114 74.186 59.4294 74.186C59.2194 74.186 59.0537 74.263 58.9324 74.417C58.811 74.5663 58.7504 74.7763 58.7504 75.047V77H57.6934V74.886C57.6934 74.6433 57.6537 74.466 57.5744 74.354C57.495 74.242 57.3667 74.186 57.1894 74.186C56.9747 74.186 56.8067 74.263 56.6854 74.417C56.5687 74.5663 56.5104 74.7763 56.5104 75.047V77H55.4534ZM64.9533 76.622C64.7806 76.7573 64.5706 76.8647 64.3233 76.944C64.076 77.0187 63.8263 77.056 63.5743 77.056C63.1776 77.056 62.8346 76.9813 62.5453 76.832C62.2606 76.6827 62.0413 76.4703 61.8873 76.195C61.7333 75.9197 61.6563 75.593 61.6563 75.215C61.6563 74.851 61.731 74.529 61.8803 74.249C62.0296 73.969 62.2326 73.752 62.4893 73.598C62.7506 73.4393 63.054 73.36 63.3993 73.36C63.7306 73.36 64.0176 73.4347 64.2603 73.584C64.503 73.7287 64.6896 73.9363 64.8203 74.207C64.951 74.473 65.0163 74.7903 65.0163 75.159V75.313H62.5873L62.6013 74.788H64.3863L64.1133 75.005C64.118 74.7063 64.0596 74.4823 63.9383 74.333C63.8216 74.179 63.6513 74.102 63.4273 74.102C63.1846 74.102 62.9956 74.1907 62.8603 74.368C62.7296 74.5407 62.6643 74.795 62.6643 75.131C62.6643 75.5277 62.7413 75.8147 62.8953 75.992C63.054 76.1693 63.2943 76.258 63.6163 76.258C63.803 76.258 63.9873 76.2277 64.1693 76.167C64.3513 76.1063 64.5193 76.02 64.6733 75.908L64.9533 76.622Z" fill="#2F1C6A"/>
<rect y="17" width="90" height="40" fill="#F5F6F9"/>
<path d="M18.288 27V22.016H20.549C21.109 22.016 21.5383 22.149 21.837 22.415C22.1403 22.681 22.292 23.0427 22.292 23.5C22.292 23.9527 22.138 24.3143 21.83 24.585C21.5267 24.851 21.0997 24.984 20.549 24.984H19.38V27H18.288ZM19.38 24.151H20.409C20.6983 24.151 20.913 24.095 21.053 23.983C21.193 23.871 21.263 23.7123 21.263 23.507C21.263 23.297 21.193 23.136 21.053 23.024C20.9177 22.912 20.703 22.856 20.409 22.856H19.38V24.151ZM24.1979 27.056C23.8899 27.056 23.6169 26.9813 23.3789 26.832C23.1409 26.6827 22.9566 26.4703 22.8259 26.195C22.6953 25.9197 22.6299 25.5977 22.6299 25.229C22.6299 24.8603 22.6953 24.536 22.8259 24.256C22.9613 23.9713 23.1456 23.752 23.3789 23.598C23.6169 23.4393 23.8899 23.36 24.1979 23.36C24.4826 23.36 24.7346 23.43 24.9539 23.57C25.1733 23.71 25.3226 23.899 25.4019 24.137L25.3179 24.193V23.451H26.3609V27H25.3179V26.272L25.4019 26.286C25.3226 26.5287 25.1733 26.7177 24.9539 26.853C24.7346 26.9883 24.4826 27.056 24.1979 27.056ZM24.5059 26.251C24.7626 26.251 24.9609 26.1623 25.1009 25.985C25.2456 25.8077 25.3179 25.551 25.3179 25.215C25.3179 24.879 25.2456 24.6223 25.1009 24.445C24.9609 24.263 24.7626 24.172 24.5059 24.172C24.2493 24.172 24.0463 24.2653 23.8969 24.452C23.7523 24.6387 23.6799 24.8977 23.6799 25.229C23.6799 25.5603 23.7499 25.8147 23.8899 25.992C24.0346 26.1647 24.2399 26.251 24.5059 26.251ZM28.8871 28.568C28.3271 28.568 27.8371 28.4583 27.4171 28.239L27.5781 27.455C27.7881 27.5623 28.0004 27.6417 28.2151 27.693C28.4298 27.7443 28.6421 27.77 28.8521 27.77C29.1554 27.77 29.3818 27.7 29.5311 27.56C29.6804 27.42 29.7551 27.2053 29.7551 26.916V26.097L29.8391 26.139C29.7831 26.2697 29.6968 26.3933 29.5801 26.51C29.4634 26.6267 29.3211 26.7223 29.1531 26.797C28.9898 26.867 28.8124 26.902 28.6211 26.902C28.3131 26.902 28.0401 26.8297 27.8021 26.685C27.5641 26.5357 27.3774 26.328 27.2421 26.062C27.1068 25.796 27.0391 25.4857 27.0391 25.131C27.0391 24.7763 27.1068 24.4683 27.2421 24.207C27.3774 23.941 27.5641 23.7333 27.8021 23.584C28.0401 23.4347 28.3131 23.36 28.6211 23.36C28.9104 23.36 29.1648 23.4323 29.3841 23.577C29.6081 23.717 29.7598 23.9037 29.8391 24.137L29.7551 24.2V23.451H30.8051V26.832C30.8051 27.4013 30.6418 27.833 30.3151 28.127C29.9931 28.421 29.5171 28.568 28.8871 28.568ZM28.9291 26.097C29.1858 26.097 29.3864 26.013 29.5311 25.845C29.6804 25.6723 29.7551 25.4343 29.7551 25.131C29.7551 24.837 29.6828 24.6037 29.5381 24.431C29.3934 24.2583 29.1904 24.172 28.9291 24.172C28.6678 24.172 28.4624 24.2583 28.3131 24.431C28.1638 24.599 28.0891 24.8323 28.0891 25.131C28.0891 25.4297 28.1638 25.6653 28.3131 25.838C28.4671 26.0107 28.6724 26.097 28.9291 26.097ZM34.7726 26.622C34.6 26.7573 34.39 26.8647 34.1426 26.944C33.8953 27.0187 33.6456 27.056 33.3936 27.056C32.997 27.056 32.654 26.9813 32.3646 26.832C32.08 26.6827 31.8606 26.4703 31.7066 26.195C31.5526 25.9197 31.4756 25.593 31.4756 25.215C31.4756 24.851 31.5503 24.529 31.6996 24.249C31.849 23.969 32.052 23.752 32.3086 23.598C32.57 23.4393 32.8733 23.36 33.2186 23.36C33.55 23.36 33.837 23.4347 34.0796 23.584C34.3223 23.7287 34.509 23.9363 34.6396 24.207C34.7703 24.473 34.8356 24.7903 34.8356 25.159V25.313H32.4066L32.4206 24.788H34.2056L33.9326 25.005C33.9373 24.7063 33.879 24.4823 33.7576 24.333C33.641 24.179 33.4706 24.102 33.2466 24.102C33.004 24.102 32.815 24.1907 32.6796 24.368C32.549 24.5407 32.4836 24.795 32.4836 25.131C32.4836 25.5277 32.5606 25.8147 32.7146 25.992C32.8733 26.1693 33.1136 26.258 33.4356 26.258C33.6223 26.258 33.8066 26.2277 33.9886 26.167C34.1706 26.1063 34.3386 26.02 34.4926 25.908L34.7726 26.622ZM37.3123 27.063C37.0603 27.063 36.8129 27.042 36.5703 27C36.3323 26.9533 36.1083 26.888 35.8983 26.804C35.6883 26.7153 35.5063 26.6103 35.3523 26.489L35.7093 25.705C35.9566 25.8777 36.2133 26.006 36.4793 26.09C36.7453 26.174 37.0253 26.216 37.3193 26.216C37.6366 26.216 37.8793 26.1647 38.0473 26.062C38.2199 25.9593 38.3063 25.817 38.3063 25.635C38.3063 25.5277 38.2713 25.4367 38.2013 25.362C38.1313 25.2873 38.0193 25.222 37.8653 25.166C37.7113 25.11 37.5059 25.054 37.2493 24.998C36.9273 24.9327 36.6519 24.8557 36.4233 24.767C36.1946 24.6783 36.0079 24.5757 35.8633 24.459C35.7233 24.3423 35.6206 24.207 35.5553 24.053C35.4899 23.8943 35.4573 23.7123 35.4573 23.507C35.4573 23.213 35.5389 22.9493 35.7023 22.716C35.8703 22.478 36.1013 22.2913 36.3953 22.156C36.6939 22.0207 37.0416 21.953 37.4383 21.953C37.6763 21.953 37.9073 21.9763 38.1313 22.023C38.3599 22.0697 38.5699 22.135 38.7613 22.219C38.9526 22.303 39.1136 22.4057 39.2443 22.527L38.8943 23.311C38.6703 23.1383 38.4369 23.01 38.1943 22.926C37.9516 22.842 37.7043 22.8 37.4523 22.8C37.1676 22.8 36.9413 22.8583 36.7733 22.975C36.6053 23.087 36.5213 23.241 36.5213 23.437C36.5213 23.5443 36.5539 23.6353 36.6193 23.71C36.6846 23.7847 36.7919 23.8523 36.9413 23.913C37.0953 23.969 37.3053 24.0273 37.5713 24.088C37.8839 24.1533 38.1546 24.2303 38.3833 24.319C38.6119 24.4077 38.7986 24.5103 38.9433 24.627C39.0926 24.739 39.2023 24.872 39.2723 25.026C39.3423 25.1753 39.3773 25.348 39.3773 25.544C39.3773 25.8567 39.2956 26.1273 39.1323 26.356C38.9689 26.58 38.7333 26.755 38.4253 26.881C38.1173 27.0023 37.7463 27.063 37.3123 27.063ZM40.0999 28.512V24.466C40.0999 24.298 40.0952 24.13 40.0859 23.962C40.0812 23.7893 40.0672 23.619 40.0439 23.451H41.0379L41.1149 24.137H41.0729C41.1475 23.899 41.2922 23.71 41.5069 23.57C41.7262 23.43 41.9805 23.36 42.2699 23.36C42.5779 23.36 42.8485 23.4393 43.0819 23.598C43.3199 23.752 43.5065 23.9713 43.6419 24.256C43.7772 24.536 43.8449 24.8603 43.8449 25.229C43.8449 25.5977 43.7772 25.9197 43.6419 26.195C43.5065 26.4703 43.3199 26.6827 43.0819 26.832C42.8485 26.9813 42.5779 27.056 42.2699 27.056C41.9805 27.056 41.7262 26.9883 41.5069 26.853C41.2922 26.7177 41.1475 26.5287 41.0729 26.286L41.1569 26.153V28.512H40.0999ZM41.9689 26.251C42.2302 26.251 42.4309 26.1647 42.5709 25.992C42.7109 25.8147 42.7809 25.5603 42.7809 25.229C42.7809 24.8977 42.7085 24.6387 42.5639 24.452C42.4239 24.2653 42.2255 24.172 41.9689 24.172C41.7029 24.172 41.4999 24.263 41.3599 24.445C41.2199 24.6223 41.1499 24.879 41.1499 25.215C41.1499 25.551 41.2199 25.8077 41.3599 25.985C41.4999 26.1623 41.7029 26.251 41.9689 26.251ZM47.6447 26.622C47.472 26.7573 47.262 26.8647 47.0147 26.944C46.7674 27.0187 46.5177 27.056 46.2657 27.056C45.869 27.056 45.526 26.9813 45.2367 26.832C44.952 26.6827 44.7327 26.4703 44.5787 26.195C44.4247 25.9197 44.3477 25.593 44.3477 25.215C44.3477 24.851 44.4224 24.529 44.5717 24.249C44.721 23.969 44.924 23.752 45.1807 23.598C45.442 23.4393 45.7454 23.36 46.0907 23.36C46.422 23.36 46.709 23.4347 46.9517 23.584C47.1944 23.7287 47.381 23.9363 47.5117 24.207C47.6424 24.473 47.7077 24.7903 47.7077 25.159V25.313H45.2787L45.2927 24.788H47.0777L46.8047 25.005C46.8094 24.7063 46.751 24.4823 46.6297 24.333C46.513 24.179 46.3427 24.102 46.1187 24.102C45.876 24.102 45.687 24.1907 45.5517 24.368C45.421 24.5407 45.3557 24.795 45.3557 25.131C45.3557 25.5277 45.4327 25.8147 45.5867 25.992C45.7454 26.1693 45.9857 26.258 46.3077 26.258C46.4944 26.258 46.6787 26.2277 46.8607 26.167C47.0427 26.1063 47.2107 26.02 47.3647 25.908L47.6447 26.622ZM51.4933 26.622C51.3207 26.7573 51.1107 26.8647 50.8633 26.944C50.616 27.0187 50.3663 27.056 50.1143 27.056C49.7177 27.056 49.3747 26.9813 49.0853 26.832C48.8007 26.6827 48.5813 26.4703 48.4273 26.195C48.2733 25.9197 48.1963 25.593 48.1963 25.215C48.1963 24.851 48.271 24.529 48.4203 24.249C48.5697 23.969 48.7727 23.752 49.0293 23.598C49.2907 23.4393 49.594 23.36 49.9393 23.36C50.2707 23.36 50.5577 23.4347 50.8003 23.584C51.043 23.7287 51.2297 23.9363 51.3603 24.207C51.491 24.473 51.5563 24.7903 51.5563 25.159V25.313H49.1273L49.1413 24.788H50.9263L50.6533 25.005C50.658 24.7063 50.5997 24.4823 50.4783 24.333C50.3617 24.179 50.1913 24.102 49.9673 24.102C49.7247 24.102 49.5357 24.1907 49.4003 24.368C49.2697 24.5407 49.2043 24.795 49.2043 25.131C49.2043 25.5277 49.2813 25.8147 49.4353 25.992C49.594 26.1693 49.8343 26.258 50.1563 26.258C50.343 26.258 50.5273 26.2277 50.7093 26.167C50.8913 26.1063 51.0593 26.02 51.2133 25.908L51.4933 26.622ZM55.776 27H54.733V26.132L54.817 26.286C54.7376 26.5287 54.5883 26.7177 54.369 26.853C54.1496 26.9883 53.8976 27.056 53.613 27.056C53.305 27.056 53.032 26.979 52.794 26.825C52.5606 26.6663 52.3763 26.4493 52.241 26.174C52.1103 25.894 52.045 25.5673 52.045 25.194C52.045 24.8253 52.1103 24.5033 52.241 24.228C52.3716 23.9527 52.556 23.7403 52.794 23.591C53.032 23.437 53.305 23.36 53.613 23.36C53.8976 23.36 54.1496 23.4323 54.369 23.577C54.5883 23.717 54.7376 23.9037 54.817 24.137L54.719 24.263V21.848H55.776V27ZM53.921 26.251C54.1776 26.251 54.376 26.1623 54.516 25.985C54.6606 25.8077 54.733 25.5487 54.733 25.208C54.733 24.8813 54.6606 24.627 54.516 24.445C54.376 24.263 54.1776 24.172 53.921 24.172C53.655 24.172 53.4496 24.2607 53.305 24.438C53.165 24.6153 53.095 24.8673 53.095 25.194C53.095 25.5347 53.1673 25.796 53.312 25.978C53.4613 26.16 53.6643 26.251 53.921 26.251ZM60.4109 27.063C60.1589 27.063 59.9116 27.042 59.6689 27C59.4309 26.9533 59.2069 26.888 58.9969 26.804C58.7869 26.7153 58.6049 26.6103 58.4509 26.489L58.8079 25.705C59.0552 25.8777 59.3119 26.006 59.5779 26.09C59.8439 26.174 60.1239 26.216 60.4179 26.216C60.7352 26.216 60.9779 26.1647 61.1459 26.062C61.3186 25.9593 61.4049 25.817 61.4049 25.635C61.4049 25.5277 61.3699 25.4367 61.2999 25.362C61.2299 25.2873 61.1179 25.222 60.9639 25.166C60.8099 25.11 60.6046 25.054 60.3479 24.998C60.0259 24.9327 59.7506 24.8557 59.5219 24.767C59.2932 24.6783 59.1066 24.5757 58.9619 24.459C58.8219 24.3423 58.7192 24.207 58.6539 24.053C58.5886 23.8943 58.5559 23.7123 58.5559 23.507C58.5559 23.213 58.6376 22.9493 58.8009 22.716C58.9689 22.478 59.1999 22.2913 59.4939 22.156C59.7926 22.0207 60.1402 21.953 60.5369 21.953C60.7749 21.953 61.0059 21.9763 61.2299 22.023C61.4586 22.0697 61.6686 22.135 61.8599 22.219C62.0512 22.303 62.2122 22.4057 62.3429 22.527L61.9929 23.311C61.7689 23.1383 61.5356 23.01 61.2929 22.926C61.0502 22.842 60.8029 22.8 60.5509 22.8C60.2662 22.8 60.0399 22.8583 59.8719 22.975C59.7039 23.087 59.6199 23.241 59.6199 23.437C59.6199 23.5443 59.6526 23.6353 59.7179 23.71C59.7832 23.7847 59.8906 23.8523 60.0399 23.913C60.1939 23.969 60.4039 24.0273 60.6699 24.088C60.9826 24.1533 61.2532 24.2303 61.4819 24.319C61.7106 24.4077 61.8972 24.5103 62.0419 24.627C62.1912 24.739 62.3009 24.872 62.3709 25.026C62.4409 25.1753 62.4759 25.348 62.4759 25.544C62.4759 25.8567 62.3942 26.1273 62.2309 26.356C62.0676 26.58 61.8319 26.755 61.5239 26.881C61.2159 27.0023 60.8449 27.063 60.4109 27.063ZM64.8785 27.056C64.4958 27.056 64.1645 26.9813 63.8845 26.832C63.6045 26.6827 63.3898 26.4727 63.2405 26.202C63.0958 25.9267 63.0235 25.6023 63.0235 25.229C63.0235 24.8557 63.1028 24.529 63.2615 24.249C63.4202 23.969 63.6418 23.752 63.9265 23.598C64.2112 23.4393 64.5448 23.36 64.9275 23.36C65.1795 23.36 65.4268 23.3997 65.6695 23.479C65.9122 23.5583 66.1082 23.6657 66.2575 23.801L65.9775 24.536C65.8375 24.424 65.6835 24.3377 65.5155 24.277C65.3475 24.2117 65.1842 24.179 65.0255 24.179C64.7408 24.179 64.5168 24.2653 64.3535 24.438C64.1902 24.6107 64.1085 24.8673 64.1085 25.208C64.1085 25.5533 64.1878 25.8123 64.3465 25.985C64.5098 26.1577 64.7362 26.244 65.0255 26.244C65.1842 26.244 65.3475 26.2137 65.5155 26.153C65.6835 26.0923 65.8375 26.0037 65.9775 25.887L66.2575 26.622C66.1035 26.7573 65.9028 26.8647 65.6555 26.944C65.4082 27.0187 65.1492 27.056 64.8785 27.056ZM68.454 27.056C68.0713 27.056 67.74 26.9813 67.46 26.832C67.18 26.6827 66.963 26.4703 66.809 26.195C66.6597 25.915 66.585 25.586 66.585 25.208C66.585 24.83 66.6597 24.5033 66.809 24.228C66.963 23.9527 67.18 23.7403 67.46 23.591C67.74 23.437 68.0713 23.36 68.454 23.36C68.8273 23.36 69.154 23.437 69.434 23.591C69.714 23.7403 69.9287 23.9527 70.078 24.228C70.232 24.5033 70.309 24.83 70.309 25.208C70.309 25.586 70.232 25.915 70.078 26.195C69.9287 26.4703 69.714 26.6827 69.434 26.832C69.154 26.9813 68.8273 27.056 68.454 27.056ZM68.454 26.251C68.7107 26.251 68.909 26.167 69.049 25.999C69.189 25.8263 69.259 25.5627 69.259 25.208C69.259 24.858 69.189 24.599 69.049 24.431C68.909 24.2583 68.7107 24.172 68.454 24.172C68.1927 24.172 67.9897 24.2583 67.845 24.431C67.705 24.599 67.635 24.858 67.635 25.208C67.635 25.5627 67.705 25.8263 67.845 25.999C67.985 26.167 68.188 26.251 68.454 26.251ZM70.9846 27V24.466C70.9846 24.298 70.98 24.13 70.9706 23.962C70.966 23.7893 70.952 23.619 70.9286 23.451H71.9226L72.0346 24.389L71.9226 24.333C71.9786 24.0157 72.1116 23.7753 72.3216 23.612C72.5363 23.4487 72.779 23.367 73.0496 23.367C73.129 23.367 73.199 23.374 73.2596 23.388C73.325 23.402 73.381 23.4183 73.4276 23.437L73.4206 24.403C73.248 24.3237 73.0753 24.284 72.9026 24.284C72.7113 24.284 72.5526 24.319 72.4266 24.389C72.3053 24.459 72.2096 24.5593 72.1396 24.69C72.0743 24.816 72.0416 24.9677 72.0416 25.145V27H70.9846ZM76.9094 26.622C76.7367 26.7573 76.5267 26.8647 76.2794 26.944C76.032 27.0187 75.7824 27.056 75.5304 27.056C75.1337 27.056 74.7907 26.9813 74.5014 26.832C74.2167 26.6827 73.9974 26.4703 73.8434 26.195C73.6894 25.9197 73.6124 25.593 73.6124 25.215C73.6124 24.851 73.687 24.529 73.8364 24.249C73.9857 23.969 74.1887 23.752 74.4454 23.598C74.7067 23.4393 75.01 23.36 75.3554 23.36C75.6867 23.36 75.9737 23.4347 76.2164 23.584C76.459 23.7287 76.6457 23.9363 76.7764 24.207C76.907 24.473 76.9724 24.7903 76.9724 25.159V25.313H74.5434L74.5574 24.788H76.3424L76.0694 25.005C76.074 24.7063 76.0157 24.4823 75.8944 24.333C75.7777 24.179 75.6074 24.102 75.3834 24.102C75.1407 24.102 74.9517 24.1907 74.8164 24.368C74.6857 24.5407 74.6204 24.795 74.6204 25.131C74.6204 25.5277 74.6974 25.8147 74.8514 25.992C75.01 26.1693 75.2504 26.258 75.5724 26.258C75.759 26.258 75.9434 26.2277 76.1254 26.167C76.3074 26.1063 76.4754 26.02 76.6294 25.908L76.9094 26.622Z" fill="#2F1C6A"/>
<path d="M28.949 49.6618L28.972 49.7297H29.0437H31.5976H31.7415L31.6914 49.5949L27.2132 37.5424L27.189 37.4773H27.1195H24.4956H24.4262L24.4019 37.5423L19.9063 49.5947L19.856 49.7297H20H22.5889H22.661L22.6838 49.6613L23.6231 46.8434H27.9924L28.949 49.6618ZM37.1652 52.5285L37.2659 52.5291V52.4285V51.1516V51.0516H37.1658C36.2206 51.0516 35.4174 50.4271 34.8452 49.3129C34.2731 48.1988 33.9422 46.6109 33.9422 44.7317C33.9422 42.8525 34.2731 41.2602 34.8453 40.1417C35.4176 39.0228 36.2209 38.3945 37.1658 38.3945H37.2659V38.2945V37V36.8994L37.1652 36.9C35.6812 36.909 34.4582 37.7025 33.6107 39.075C32.7648 40.4448 32.2904 42.3934 32.2904 44.7317C32.2904 47.0788 32.7648 49.0188 33.6109 50.3778C34.4588 51.7398 35.6819 52.5195 37.1652 52.5285ZM42.153 45.7064C43.2372 45.7064 44.1949 45.2396 44.785 44.5106C44.7666 45.4871 44.4711 46.3888 43.9934 47.0639C43.4672 47.8074 42.7252 48.2702 41.8907 48.2702C41.0679 48.2702 40.267 47.9042 39.8127 46.8947L39.7732 46.807L39.6839 46.8431L38.3021 47.4029L38.2086 47.4407L38.2473 47.5339C38.64 48.48 39.2055 49.0754 39.8455 49.4327C40.4838 49.7891 41.1888 49.9046 41.8556 49.9046C43.7061 49.9046 44.9087 48.9983 45.6436 47.7519C46.3753 46.5111 46.6437 44.9346 46.6437 43.5772C46.6437 41.9633 46.2779 40.5583 45.5465 39.5541C44.8123 38.546 43.715 37.9496 42.2755 37.9496C39.7194 37.9496 38.1172 39.813 38.1172 41.8105C38.1172 43.8587 39.7525 45.7064 42.153 45.7064ZM52.4026 45.7064C53.4868 45.7064 54.4445 45.2396 55.0346 44.5106C55.0162 45.4871 54.7207 46.3888 54.2429 47.0639C53.7167 47.8074 52.9747 48.2702 52.1401 48.2702C51.3175 48.2702 50.5165 47.9042 50.0623 46.8948L50.0228 46.807L49.9335 46.8431L48.5517 47.4029L48.4582 47.4407L48.4969 47.5339C48.8896 48.48 49.4551 49.0754 50.0951 49.4327C50.7334 49.7891 51.4384 49.9046 52.1052 49.9046C53.9557 49.9046 55.1583 48.9983 55.8932 47.7519C56.6248 46.5111 56.8932 44.9346 56.8932 43.5772C56.8932 41.9633 56.5274 40.5583 55.796 39.5541C55.0619 38.546 53.9646 37.9496 52.5251 37.9496C49.9689 37.9496 48.3668 39.813 48.3668 41.8105C48.3668 43.8587 50.0021 45.7064 52.4026 45.7064ZM59.8158 49.5861L59.7462 49.7297H59.9058H60.9553H61.018L61.0453 49.6732L66.573 38.233L66.6424 38.0895H66.483H65.451H65.3883L65.361 38.1459L59.8158 49.5861ZM69.0932 52.4285V52.5291L69.1938 52.5285C70.6772 52.5195 71.896 51.7397 72.7395 50.3776C73.5811 49.0186 74.0511 47.0786 74.0511 44.7317C74.0511 42.3935 73.5811 40.445 72.7397 39.0752C71.8966 37.7026 70.6779 36.909 69.1938 36.9L69.0932 36.8994V37V38.2945V38.3945H69.1932C70.1382 38.3945 70.9414 39.0228 71.5137 40.1417C72.0858 41.2602 72.4167 42.8525 72.4167 44.7317C72.4167 46.6109 72.0858 48.1988 71.5138 49.3129C70.9416 50.4271 70.1384 51.0516 69.1932 51.0516H69.0932V51.1516V52.4285ZM24.4073 44.5268L25.7906 40.4086L27.1898 44.5268H24.4073ZM42.1893 44.0545C40.8748 44.0202 39.9089 43.063 39.9089 41.8454C39.9089 40.5799 40.9394 39.6195 42.3617 39.6189C43.7112 39.6533 44.7457 40.6276 44.7468 41.9484C44.696 43.1728 43.5675 44.0539 42.1893 44.0545ZM52.4388 44.0545C51.1244 44.0202 50.1585 43.063 50.1585 41.8454C50.1585 40.5799 51.189 39.6195 52.6113 39.6189C53.9608 39.6533 54.9953 40.6276 54.9964 41.9483C54.9456 43.1728 53.8171 44.0539 52.4388 44.0545ZM60.6929 42.6102C62.0241 42.6102 63.1194 41.5518 63.1194 40.1836C63.1194 38.8515 62.0251 37.7571 60.6929 37.7571C59.3248 37.7571 58.2664 38.8525 58.2664 40.1836C58.2664 41.5508 59.3257 42.6102 60.6929 42.6102ZM60.6929 41.2906C60.0485 41.2906 59.586 40.8281 59.586 40.1836C59.586 39.5703 60.0522 39.0592 60.6929 39.0592C61.3024 39.0592 61.8174 39.5742 61.8174 40.1836C61.8174 40.8244 61.3063 41.2906 60.6929 41.2906ZM65.8182 49.9046C67.167 49.9046 68.2448 48.8462 68.2448 47.4956C68.2448 46.1469 67.1689 45.0515 65.8182 45.0515C64.4486 45.0515 63.4093 46.1484 63.4093 47.4956C63.4093 48.8448 64.4506 49.9046 65.8182 49.9046ZM65.8182 48.6026C65.1748 48.6026 64.7113 48.1235 64.7113 47.4956C64.7113 46.8657 65.1766 46.3711 65.8182 46.3711C66.4452 46.3711 66.9427 46.8686 66.9427 47.4956C66.9427 48.1207 66.4471 48.6026 65.8182 48.6026Z" fill="#00B090" stroke="#00B090" stroke-width="0.2"/>
<path d="M24.7089 94.3444C24.7089 93.4859 24.7727 92.726 24.9003 92.0647C25.028 91.3919 25.2368 90.777 25.5268 90.2202C25.8284 89.6633 26.2577 89.2398 26.8146 88.9498C27.3714 88.6482 28.0443 88.4974 28.8332 88.4974C29.6337 88.4974 30.3065 88.6482 30.8518 88.9498C31.4086 89.2398 31.8321 89.6633 32.1221 90.2202C32.4238 90.777 32.6326 91.3861 32.7486 92.0473C32.8762 92.7086 32.94 93.4743 32.94 94.3444C32.94 95.2029 32.8762 95.9628 32.7486 96.624C32.6326 97.2737 32.4238 97.877 32.1221 98.4338C31.8321 98.9907 31.4086 99.4199 30.8518 99.7216C30.2949 100.012 29.6221 100.157 28.8332 100.157C28.1951 100.157 27.6324 100.058 27.1452 99.8608C26.6695 99.652 26.2751 99.3793 25.9619 99.0429C25.6602 98.6949 25.4108 98.2714 25.2136 97.7726C25.028 97.2621 24.8945 96.7342 24.8133 96.189C24.7437 95.6321 24.7089 95.0173 24.7089 94.3444ZM26.2751 94.3444C26.2751 95.6669 26.4607 96.711 26.832 97.4767C27.2148 98.2308 27.8819 98.6079 28.8332 98.6079C29.7845 98.6079 30.4457 98.2308 30.817 97.4767C31.1998 96.711 31.3912 95.6669 31.3912 94.3444C31.3912 93.0103 31.1998 91.9661 30.817 91.2121C30.4457 90.4464 29.7845 90.0635 28.8332 90.0635C27.8819 90.0635 27.2148 90.4464 26.832 91.2121C26.4607 91.9661 26.2751 93.0103 26.2751 94.3444ZM35.6107 99.8782C35.3902 99.6694 35.28 99.4083 35.28 99.0951C35.28 98.7819 35.3902 98.5208 35.6107 98.312C35.8311 98.1032 36.0979 97.9988 36.4111 97.9988C36.7244 97.9988 36.9912 98.1032 37.2116 98.312C37.4436 98.5208 37.5597 98.7819 37.5597 99.0951C37.5597 99.4083 37.4436 99.6694 37.2116 99.8782C36.9912 100.075 36.7244 100.174 36.4111 100.174C36.0979 100.174 35.8311 100.075 35.6107 99.8782ZM40.9037 100V90.6204L39.0591 91.2643V89.7677L42.4698 88.5322V100H40.9037ZM52.058 97.6682V100H50.5092V97.6682H44.5926L50.8921 88.6366H52.058V96.189H53.6938V97.6682H52.058ZM47.2551 96.189H50.5092V91.4557L47.2551 96.189ZM57.014 91.0728L55.8481 90.1505C56.1613 89.6053 56.6138 89.1818 57.2054 88.8802C57.7971 88.567 58.4409 88.4336 59.137 88.48C60.0535 88.5264 60.8076 88.8628 61.3993 89.4893C62.0025 90.1041 62.2926 90.8176 62.2694 91.6297C62.2694 91.8501 62.2346 92.0822 62.1649 92.3258C61.9561 93.0103 61.5443 93.5265 60.9294 93.8745C61.4979 94.0834 61.9503 94.4894 62.2868 95.0927C62.6348 95.6959 62.7798 96.3108 62.7218 96.9373C62.6406 97.9002 62.1881 98.6949 61.3645 99.3213C60.5524 99.9478 59.6185 100.22 58.5628 100.139C57.8203 100.093 57.1474 99.855 56.5441 99.4257C55.9409 98.9849 55.4884 98.4338 55.1868 97.7726L56.5615 97.0243C56.7472 97.4303 57.0372 97.7842 57.4316 98.0858C57.8261 98.3874 58.2437 98.5556 58.6846 98.5904H58.6672C59.3052 98.6253 59.8679 98.4628 60.3552 98.1032C60.854 97.732 61.115 97.2737 61.1382 96.7284C61.1498 96.1832 60.9352 95.7075 60.4944 95.3015C60.0651 94.8955 59.5489 94.6924 58.9456 94.6924H57.6579V93.1785H58.9456C59.34 93.1901 59.6823 93.0741 59.9723 92.8304C60.2623 92.5752 60.4422 92.2562 60.5118 91.8733C60.593 91.3977 60.5292 91.009 60.3203 90.7074C60.0535 90.3014 59.6127 90.0809 58.9978 90.0461C58.1857 89.9765 57.5244 90.3188 57.014 91.0728ZM66.9184 96.4152C66.1411 96.2064 65.5668 95.8932 65.1956 95.4755C64.8244 95.0579 64.6735 94.4894 64.7431 93.7701C64.8011 93.1785 65.1028 92.6854 65.648 92.291C66.1933 91.8965 66.8314 91.6993 67.5622 91.6993C68.3163 91.6993 68.9544 91.8907 69.4765 92.2736C70.0101 92.6448 70.3117 93.2191 70.3813 93.9964H68.8674C68.821 93.7063 68.676 93.4801 68.4323 93.3177C68.2003 93.1553 67.9219 93.0741 67.597 93.0741C67.2954 93.0741 67.0286 93.1437 66.7966 93.2829C66.5761 93.4105 66.4369 93.5845 66.3789 93.8049C66.3093 94.0602 66.3151 94.2748 66.3963 94.4488C66.5239 94.7156 66.843 94.9245 67.3534 95.0753L68.5542 95.3711C69.9579 95.7191 70.6598 96.508 70.6598 97.7378C70.6598 98.4686 70.3523 99.0603 69.7375 99.5127C69.1342 99.9536 68.3917 100.174 67.51 100.174C66.7328 100.174 66.0367 99.9362 65.4218 99.4605C64.8186 98.9849 64.5053 98.3526 64.4821 97.5637H65.9265C65.9961 97.993 66.2165 98.3004 66.5877 98.486C66.9474 98.7065 67.3766 98.7993 67.8755 98.7645C68.2467 98.7413 68.5425 98.6311 68.763 98.4338C68.9834 98.2366 69.0994 97.993 69.111 97.703C69.1226 97.4245 69.0298 97.2041 68.8326 97.0417C68.6354 96.8793 68.3685 96.7575 68.0321 96.6762L66.9184 96.4152Z" fill="#00B090"/>
<path d="M24.9003 92.0647L25.0967 92.1026L25.0968 92.102L24.9003 92.0647ZM25.5268 90.2202L25.3509 90.1249L25.3494 90.1278L25.5268 90.2202ZM26.8146 88.9498L26.907 89.1272L26.9098 89.1257L26.8146 88.9498ZM30.8518 88.9498L30.7549 89.1249L30.7594 89.1272L30.8518 88.9498ZM32.1221 90.2202L31.9447 90.3126L31.9463 90.3154L32.1221 90.2202ZM32.7486 92.0473L32.5516 92.0819L32.5522 92.0852L32.7486 92.0473ZM32.7486 96.624L32.5522 96.5861L32.5517 96.5889L32.7486 96.624ZM32.1221 98.4338L31.9462 98.3386L31.9447 98.3414L32.1221 98.4338ZM30.8518 99.7216L30.9442 99.899L30.947 99.8974L30.8518 99.7216ZM27.1452 99.8608L27.0648 100.044L27.0701 100.046L27.1452 99.8608ZM25.9619 99.0429L25.8106 99.174L25.8155 99.1792L25.9619 99.0429ZM25.2136 97.7726L25.0256 97.8409L25.0276 97.8461L25.2136 97.7726ZM24.8133 96.189L24.6148 96.2138L24.6155 96.2185L24.8133 96.189ZM26.832 97.4767L26.652 97.564L26.6536 97.5673L26.832 97.4767ZM30.817 97.4767L30.6381 97.3873L30.6375 97.3884L30.817 97.4767ZM30.817 91.2121L30.637 91.2993L30.6386 91.3026L30.817 91.2121ZM26.832 91.2121L26.6531 91.1226L26.6525 91.1237L26.832 91.2121ZM24.9089 94.3444C24.9089 93.4953 24.9721 92.7486 25.0967 92.1026L24.704 92.0269C24.5734 92.7035 24.5089 93.4765 24.5089 94.3444H24.9089ZM25.0968 92.102C25.2211 91.4466 25.424 90.8506 25.7042 90.3125L25.3494 90.1278C25.0496 90.7035 24.8348 91.3371 24.7039 92.0275L25.0968 92.102ZM25.7027 90.3154C25.9855 89.7933 26.3858 89.3986 26.9069 89.1272L26.7222 88.7724C26.1296 89.0811 25.6714 89.5333 25.351 90.1249L25.7027 90.3154ZM26.9098 89.1257C27.4311 88.8433 28.0695 88.6974 28.8332 88.6974V88.2974C28.0191 88.2974 27.3117 88.453 26.7193 88.774L26.9098 89.1257ZM28.8332 88.6974C29.6092 88.6974 30.2466 88.8436 30.755 89.1248L30.9486 88.7748C30.3664 88.4528 29.6581 88.2974 28.8332 88.2974V88.6974ZM30.7594 89.1272C31.2799 89.3983 31.6737 89.7921 31.9447 90.3125L32.2995 90.1278C31.9905 89.5345 31.5374 89.0814 30.9442 88.7724L30.7594 89.1272ZM31.9463 90.3154C32.237 90.8522 32.4391 91.4406 32.5516 92.0819L32.9456 92.0128C32.8261 91.3316 32.6105 90.7018 32.298 90.1249L31.9463 90.3154ZM32.5522 92.0852C32.6768 92.731 32.74 93.4835 32.74 94.3444H33.14C33.14 93.4651 33.0756 92.6862 32.945 92.0094L32.5522 92.0852ZM32.74 94.3444C32.74 95.1934 32.6769 95.9402 32.5522 96.5861L32.945 96.6619C33.0755 95.9853 33.14 95.2123 33.14 94.3444H32.74ZM32.5517 96.5889C32.4393 97.2184 32.2373 97.8013 31.9463 98.3386L32.298 98.5291C32.6102 97.9527 32.8259 97.329 32.9455 96.6592L32.5517 96.5889ZM31.9447 98.3414C31.6733 98.8626 31.2786 99.2629 30.7565 99.5457L30.947 99.8974C31.5387 99.577 31.9909 99.1188 32.2995 98.5262L31.9447 98.3414ZM30.7594 99.5442C30.2375 99.816 29.598 99.9566 28.8332 99.9566V100.357C29.6462 100.357 30.3524 100.207 30.9442 99.899L30.7594 99.5442ZM28.8332 99.9566C28.2155 99.9566 27.6791 99.8611 27.2202 99.6754L27.0701 100.046C27.5857 100.255 28.1747 100.357 28.8332 100.357V99.9566ZM27.2256 99.6777C26.7717 99.4784 26.4006 99.2207 26.1082 98.9066L25.8155 99.1792C26.1496 99.538 26.5674 99.8256 27.0648 100.044L27.2256 99.6777ZM26.113 98.9119C25.8284 98.5835 25.5898 98.1803 25.3996 97.699L25.0276 97.8461C25.2318 98.3625 25.4921 98.8062 25.8107 99.1739L26.113 98.9119ZM25.4015 97.7042C25.2206 97.2065 25.0904 96.6917 25.0112 96.1595L24.6155 96.2185C24.6987 96.7768 24.8354 97.3177 25.0256 97.8409L25.4015 97.7042ZM25.0118 96.1642C24.9434 95.617 24.9089 95.0105 24.9089 94.3444H24.5089C24.5089 95.024 24.5441 95.6473 24.6149 96.2138L25.0118 96.1642ZM26.0751 94.3444C26.0751 95.6821 26.2623 96.7602 26.652 97.564L27.0119 97.3895C26.6592 96.6619 26.4751 95.6518 26.4751 94.3444H26.0751ZM26.6536 97.5673C26.8609 97.9756 27.1496 98.2893 27.521 98.4992C27.891 98.7083 28.3313 98.8079 28.8332 98.8079V98.4079C28.3838 98.4079 28.0149 98.3189 27.7178 98.151C27.4221 97.9838 27.1858 97.7319 27.0103 97.3862L26.6536 97.5673ZM28.8332 98.8079C29.335 98.8079 29.7742 98.7083 30.1417 98.4988C30.5106 98.2884 30.7951 97.9741 30.9964 97.5651L30.6375 97.3884C30.4677 97.7335 30.2359 97.9847 29.9435 98.1513C29.6497 98.3188 29.2826 98.4079 28.8332 98.4079V98.8079ZM30.9959 97.5662C31.3981 96.7617 31.5912 95.6827 31.5912 94.3444H31.1912C31.1912 95.6512 31.0015 96.6604 30.6381 97.3873L30.9959 97.5662ZM31.5912 94.3444C31.5912 92.9951 31.3983 91.9153 30.9953 91.1215L30.6386 91.3026C31.0013 92.017 31.1912 93.0254 31.1912 94.3444H31.5912ZM30.9969 91.1248C30.796 90.7103 30.5119 90.3912 30.1428 90.1776C29.7751 89.9647 29.3355 89.8635 28.8332 89.8635V90.2635C29.2822 90.2635 29.6488 90.3538 29.9424 90.5238C30.2346 90.6929 30.4668 90.9482 30.637 91.2993L30.9969 91.1248ZM28.8332 89.8635C28.3308 89.8635 27.8901 89.9647 27.5198 90.1772C27.1484 90.3904 26.86 90.7087 26.6531 91.1226L27.0108 91.3015C27.1867 90.9497 27.4233 90.6938 27.7189 90.5241C28.0158 90.3538 28.3843 90.2635 28.8332 90.2635V89.8635ZM26.6525 91.1237C26.2621 91.9168 26.0751 92.9957 26.0751 94.3444H26.4751C26.4751 93.0248 26.6593 92.0155 27.0114 91.3004L26.6525 91.1237ZM35.6107 99.8782L35.473 100.023L35.4773 100.027L35.6107 99.8782ZM37.2116 98.312L37.074 98.4573L37.0778 98.4607L37.2116 98.312ZM37.2116 99.8782L37.345 100.027L37.3454 100.027L37.2116 99.8782ZM35.7482 99.733C35.569 99.5633 35.48 99.3554 35.48 99.0951H35.08C35.08 99.4613 35.2114 99.7755 35.4731 100.023L35.7482 99.733ZM35.48 99.0951C35.48 98.8348 35.569 98.6269 35.7482 98.4572L35.4731 98.1668C35.2114 98.4147 35.08 98.7289 35.08 99.0951H35.48ZM35.7482 98.4572C35.9302 98.2848 36.1473 98.1988 36.4111 98.1988V97.7988C36.0485 97.7988 35.732 97.9216 35.4731 98.1668L35.7482 98.4572ZM36.4111 98.1988C36.675 98.1988 36.8921 98.2848 37.0741 98.4572L37.3492 98.1668C37.0903 97.9216 36.7738 97.7988 36.4111 97.7988V98.1988ZM37.0778 98.4607C37.2675 98.6314 37.3597 98.8383 37.3597 99.0951H37.7597C37.7597 98.7254 37.6197 98.4103 37.3454 98.1634L37.0778 98.4607ZM37.3597 99.0951C37.3597 99.3519 37.2675 99.5588 37.0778 99.7295L37.3454 100.027C37.6197 99.7799 37.7597 99.4648 37.7597 99.0951H37.3597ZM37.0783 99.7291C36.8968 99.8915 36.6783 99.974 36.4111 99.974V100.374C36.7704 100.374 37.0856 100.259 37.345 100.027L37.0783 99.7291ZM36.4111 99.974C36.1439 99.974 35.9255 99.8915 35.744 99.7291L35.4773 100.027C35.7367 100.259 36.0519 100.374 36.4111 100.374V99.974ZM40.9037 100H40.7037V100.2H40.9037V100ZM40.9037 90.6204H41.1037V90.3387L40.8378 90.4316L40.9037 90.6204ZM39.0591 91.2643H38.8591V91.5459L39.125 91.4531L39.0591 91.2643ZM39.0591 89.7677L38.991 89.5797L38.8591 89.6274V89.7677H39.0591ZM42.4698 88.5322H42.6698V88.247L42.4017 88.3441L42.4698 88.5322ZM42.4698 100V100.2H42.6698V100H42.4698ZM41.1037 100V90.6204H40.7037V100H41.1037ZM40.8378 90.4316L38.9932 91.0754L39.125 91.4531L40.9696 90.8092L40.8378 90.4316ZM39.2591 91.2643V89.7677H38.8591V91.2643H39.2591ZM39.1272 89.9557L42.538 88.7202L42.4017 88.3441L38.991 89.5797L39.1272 89.9557ZM42.2698 88.5322V100H42.6698V88.5322H42.2698ZM42.4698 99.8H40.9037V100.2H42.4698V99.8ZM52.058 97.6681V97.4682H51.858V97.6681H52.058ZM52.058 100V100.2H52.258V100H52.058ZM50.5092 100H50.3092V100.2H50.5092V100ZM50.5092 97.6681H50.7092V97.4682H50.5092V97.6681ZM44.5926 97.6681L44.4286 97.5537L44.2093 97.8681H44.5926V97.6681ZM50.8921 88.6366V88.4366H50.7877L50.728 88.5222L50.8921 88.6366ZM52.058 88.6366H52.258V88.4366H52.058V88.6366ZM52.058 96.189H51.858V96.389H52.058V96.189ZM53.6938 96.189H53.8938V95.989H53.6938V96.189ZM53.6938 97.6681V97.8681H53.8938V97.6681H53.6938ZM47.2551 96.189L47.0903 96.0757L46.8749 96.389H47.2551V96.189ZM50.5092 96.189V96.389H50.7092V96.189H50.5092ZM50.5092 91.4557H50.7092V90.8117L50.3444 91.3424L50.5092 91.4557ZM51.858 97.6681V100H52.258V97.6681H51.858ZM52.058 99.8H50.5092V100.2H52.058V99.8ZM50.7092 100V97.6681H50.3092V100H50.7092ZM50.5092 97.4682H44.5926V97.8681H50.5092V97.4682ZM44.7566 97.7826L51.0561 88.751L50.728 88.5222L44.4286 97.5537L44.7566 97.7826ZM50.8921 88.8366H52.058V88.4366H50.8921V88.8366ZM51.858 88.6366V96.189H52.258V88.6366H51.858ZM52.058 96.389H53.6938V95.989H52.058V96.389ZM53.4938 96.189V97.6681H53.8938V96.189H53.4938ZM53.6938 97.4682H52.058V97.8681H53.6938V97.4682ZM47.2551 96.389H50.5092V95.989H47.2551V96.389ZM50.7092 96.189V91.4557H50.3092V96.189H50.7092ZM50.3444 91.3424L47.0903 96.0757L47.4199 96.3023L50.674 91.569L50.3444 91.3424ZM57.014 91.0728L56.8899 91.2297L57.0589 91.3633L57.1796 91.185L57.014 91.0728ZM55.8481 90.1505L55.6746 90.0509L55.5888 90.2004L55.724 90.3074L55.8481 90.1505ZM57.2054 88.8802L57.2963 89.0584L57.299 89.057L57.2054 88.8802ZM59.137 88.48L59.1237 88.6795L59.1269 88.6797L59.137 88.48ZM61.3993 89.4893L61.2538 89.6266L61.2565 89.6293L61.3993 89.4893ZM62.2694 91.6297L62.0694 91.624V91.6297H62.2694ZM62.1649 92.3258L62.3563 92.3841L62.3573 92.3807L62.1649 92.3258ZM60.9294 93.8745L60.8309 93.7005L60.4549 93.9133L60.8605 94.0623L60.9294 93.8745ZM62.2868 95.0927L62.1121 95.1901L62.1135 95.1926L62.2868 95.0927ZM62.7218 96.9373L62.5227 96.9188L62.5225 96.9205L62.7218 96.9373ZM61.3645 99.3213L61.2434 99.1621L61.2423 99.163L61.3645 99.3213ZM58.5628 100.139L58.5781 99.9398L58.5752 99.9396L58.5628 100.139ZM56.5441 99.4257L56.4261 99.5872L56.4282 99.5887L56.5441 99.4257ZM55.1868 97.7726L55.0912 97.5969L54.9275 97.686L55.0048 97.8556L55.1868 97.7726ZM56.5615 97.0243L56.7434 96.9411L56.6543 96.7461L56.4659 96.8486L56.5615 97.0243ZM57.4316 98.0858L57.3102 98.2447L57.4316 98.0858ZM58.6846 98.5904V98.7904L58.7003 98.3911L58.6846 98.5904ZM58.6672 98.5904V98.3904L58.6563 98.7902L58.6672 98.5904ZM60.3552 98.1032L60.4739 98.2641L60.4746 98.2636L60.3552 98.1032ZM61.1382 96.7284L61.3381 96.737L61.3382 96.7327L61.1382 96.7284ZM60.4944 95.3015L60.3569 95.4468L60.3589 95.4486L60.4944 95.3015ZM57.6579 94.6924H57.4579V94.8924H57.6579V94.6924ZM57.6579 93.1785V92.9785H57.4579V93.1785H57.6579ZM58.9456 93.1785L58.9515 92.9785H58.9456V93.1785ZM59.9723 92.8304L60.101 92.9836L60.1044 92.9806L59.9723 92.8304ZM60.5118 91.8733L60.7086 91.9091L60.7089 91.907L60.5118 91.8733ZM60.3204 90.7074L60.1532 90.8173L60.1559 90.8212L60.3204 90.7074ZM58.9978 90.0461L58.9807 90.2455L58.9865 90.2458L58.9978 90.0461ZM57.1381 90.916L55.9721 89.9937L55.724 90.3074L56.8899 91.2297L57.1381 90.916ZM56.0215 90.2502C56.3143 89.7405 56.7371 89.3434 57.2963 89.0584L57.1146 88.702C56.4904 89.0202 56.0083 89.4701 55.6746 90.0509L56.0215 90.2502ZM57.299 89.057C57.8564 88.7619 58.4631 88.6355 59.1237 88.6795L59.1503 88.2804C58.4188 88.2316 57.7377 88.3721 57.1118 88.7034L57.299 89.057ZM59.1269 88.6797C59.9956 88.7237 60.7 89.0402 61.2539 89.6266L61.5447 89.3519C60.9152 88.6854 60.1114 88.329 59.1471 88.2802L59.1269 88.6797ZM61.2565 89.6293C61.8243 90.208 62.091 90.8698 62.0694 91.624L62.4693 91.6354C62.4941 90.7654 62.1808 90.0003 61.542 89.3492L61.2565 89.6293ZM62.0694 91.6297C62.0694 91.829 62.0379 92.0425 61.9726 92.2708L62.3573 92.3807C62.4312 92.1218 62.4694 91.8712 62.4694 91.6297H62.0694ZM61.9737 92.2674C61.7796 92.9036 61.4005 93.3781 60.8309 93.7005L61.0279 94.0486C61.688 93.6749 62.1327 93.1169 62.3562 92.3841L61.9737 92.2674ZM60.8605 94.0623C61.3777 94.2523 61.7955 94.6224 62.1121 95.1901L62.4614 94.9953C62.1052 94.3565 61.618 93.9144 60.9984 93.6868L60.8605 94.0623ZM62.1135 95.1926C62.4432 95.7641 62.5764 96.3379 62.5227 96.9188L62.921 96.9557C62.9832 96.2837 62.8264 95.6278 62.46 94.9927L62.1135 95.1926ZM62.5225 96.9205C62.4464 97.8226 62.0256 98.5672 61.2434 99.1621L61.4855 99.4805C62.3507 98.8225 62.8348 97.9777 62.9211 96.9541L62.5225 96.9205ZM61.2423 99.163C60.4708 99.7582 59.5862 100.017 58.5781 99.9398L58.5474 100.339C59.6507 100.423 60.634 100.137 61.4866 99.4797L61.2423 99.163ZM58.5752 99.9396C57.8698 99.8955 57.2328 99.6703 56.6601 99.2628L56.4282 99.5887C57.062 100.04 57.7708 100.29 58.5503 100.339L58.5752 99.9396ZM56.6621 99.2643C56.0858 98.8431 55.6557 98.3187 55.3688 97.6896L55.0048 97.8556C55.3211 98.5489 55.796 99.1267 56.4261 99.5872L56.6621 99.2643ZM55.2824 97.9482L56.6572 97.1999L56.4659 96.8486L55.0912 97.5969L55.2824 97.9482ZM56.3797 97.1074C56.5804 97.5465 56.8926 97.9254 57.3102 98.2447L57.5531 97.9269C57.1818 97.6429 56.914 97.3141 56.7434 96.9411L56.3797 97.1074ZM57.3102 98.2447C57.7313 98.5667 58.185 98.7516 58.6688 98.7898L58.7003 98.3911C58.3025 98.3597 57.9208 98.2081 57.5531 97.9269L57.3102 98.2447ZM58.6846 98.3904H58.6672V98.7904H58.6846V98.3904ZM58.6563 98.7902C59.338 98.8273 59.9471 98.653 60.4739 98.2641L60.2364 97.9423C59.7887 98.2727 59.2725 98.4232 58.6781 98.3907L58.6563 98.7902ZM60.4746 98.2636C61.0141 97.8621 61.3119 97.3512 61.3381 96.737L60.9384 96.7199C60.9182 97.1962 60.6939 97.6018 60.2358 97.9427L60.4746 98.2636ZM61.3382 96.7327C61.3511 96.124 61.1082 95.595 60.6299 95.1544L60.3589 95.4486C60.7622 95.8201 60.9485 96.2424 60.9383 96.7242L61.3382 96.7327ZM60.6318 95.1562C60.1646 94.7142 59.5988 94.4924 58.9456 94.4924V94.8924C59.4989 94.8924 59.9657 95.0767 60.3569 95.4468L60.6318 95.1562ZM58.9456 94.4924H57.6579V94.8924H58.9456V94.4924ZM57.8579 94.6924V93.1785H57.4579V94.6924H57.8579ZM57.6579 93.3785H58.9456V92.9785H57.6579V93.3785ZM58.9397 93.3784C59.381 93.3914 59.7717 93.2602 60.101 92.9836L59.8437 92.6773C59.5929 92.8879 59.2991 92.9888 58.9515 92.9786L58.9397 93.3784ZM60.1044 92.9806C60.4285 92.6954 60.6309 92.3359 60.7085 91.9091L60.315 91.8376C60.2534 92.1764 60.0961 92.455 59.8402 92.6803L60.1044 92.9806ZM60.7089 91.907C60.7961 91.3966 60.7319 90.9504 60.4848 90.5936L60.1559 90.8212C60.3265 91.0676 60.3899 91.3988 60.3146 91.8397L60.7089 91.907ZM60.4875 90.5976C60.1767 90.1247 59.6685 89.8838 59.0091 89.8465L58.9865 90.2458C59.5568 90.2781 59.9303 90.4781 60.1532 90.8172L60.4875 90.5976ZM59.0149 89.8469C58.1209 89.7702 57.3937 90.1552 56.8484 90.9607L57.1796 91.185C57.6552 90.4823 58.2506 90.1828 58.9807 90.2454L59.0149 89.8469ZM66.9184 96.4152L66.8665 96.6085L66.8727 96.6099L66.9184 96.4152ZM65.1956 95.4755L65.3451 95.3426L65.1956 95.4755ZM64.7431 93.7701L64.5441 93.7506L64.5441 93.7509L64.7431 93.7701ZM65.648 92.291L65.7653 92.453L65.648 92.291ZM69.4765 92.2736L69.3581 92.4349L69.3622 92.4378L69.4765 92.2736ZM70.3813 93.9964V94.1964H70.6001L70.5806 93.9785L70.3813 93.9964ZM68.8674 93.9964L68.6699 94.028L68.6968 94.1964H68.8674V93.9964ZM68.4323 93.3177L68.3176 93.4816L68.3214 93.4841L68.4323 93.3177ZM66.7966 93.2829L66.8968 93.456L66.8995 93.4544L66.7966 93.2829ZM66.3789 93.8049L66.5719 93.8576L66.5723 93.8558L66.3789 93.8049ZM66.3963 94.4488L66.2151 94.5334L66.2159 94.5351L66.3963 94.4488ZM67.3534 95.0753L67.2967 95.2673L67.3056 95.2695L67.3534 95.0753ZM68.5541 95.3711L68.6023 95.177L68.602 95.1769L68.5541 95.3711ZM69.7375 99.5127L69.8555 99.6742L69.856 99.6738L69.7375 99.5127ZM65.4218 99.4605L65.298 99.6176L65.2994 99.6187L65.4218 99.4605ZM64.4821 97.5637V97.3637H64.2761L64.2822 97.5696L64.4821 97.5637ZM65.9265 97.5637L66.1239 97.5317L66.0966 97.3637H65.9265V97.5637ZM66.5877 98.486L66.6923 98.3155L66.6849 98.311L66.6772 98.3072L66.5877 98.486ZM67.8755 98.7645L67.863 98.5649L67.8616 98.565L67.8755 98.7645ZM68.763 98.4338L68.8963 98.5829L68.763 98.4338ZM69.111 97.703L68.9112 97.6946L68.9112 97.695L69.111 97.703ZM68.8326 97.0417L68.9597 96.8873L68.8326 97.0417ZM68.0321 96.6762L68.079 96.4818L68.0777 96.4815L68.0321 96.6762ZM66.9703 96.2221C66.2149 96.0191 65.6813 95.7209 65.3451 95.3426L65.0461 95.6084C65.4524 96.0654 66.0673 96.3937 66.8665 96.6084L66.9703 96.2221ZM65.3451 95.3426C65.0209 94.9779 64.8763 94.4704 64.9422 93.7894L64.5441 93.7509C64.4708 94.5084 64.6278 95.1378 65.0461 95.6084L65.3451 95.3426ZM64.9422 93.7896C64.9938 93.2629 65.2596 92.8188 65.7653 92.453L65.5308 92.1289C64.9459 92.552 64.6085 93.094 64.5441 93.7506L64.9422 93.7896ZM65.7653 92.453C66.2734 92.0854 66.8696 91.8993 67.5622 91.8993V91.4993C66.7931 91.4993 66.1132 91.7077 65.5308 92.1289L65.7653 92.453ZM67.5622 91.8993C68.281 91.8993 68.8758 92.0811 69.3582 92.4349L69.5947 92.1123C69.0329 91.7003 68.3516 91.4993 67.5622 91.4993V91.8993ZM69.3622 92.4378C69.8375 92.7684 70.1166 93.2828 70.1821 94.0142L70.5806 93.9785C70.5068 93.1553 70.1827 92.5212 69.5907 92.1094L69.3622 92.4378ZM70.3813 93.7964H68.8674V94.1964H70.3813V93.7964ZM69.0649 93.9648C69.0097 93.6199 68.8334 93.3447 68.5433 93.1513L68.3214 93.4841C68.5185 93.6155 68.6323 93.7928 68.6699 94.028L69.0649 93.9648ZM68.547 93.1538C68.2766 92.9645 67.9567 92.8741 67.597 92.8741V93.2741C67.8871 93.2741 68.124 93.346 68.3176 93.4815L68.547 93.1538ZM67.597 92.8741C67.2634 92.8741 66.9602 92.9514 66.6937 93.1114L66.8995 93.4544C67.0969 93.3359 67.3274 93.2741 67.597 93.2741V92.8741ZM66.6964 93.1098C66.4358 93.2607 66.2587 93.4758 66.1855 93.754L66.5723 93.8558C66.6151 93.6932 66.7165 93.5603 66.8968 93.456L66.6964 93.1098ZM66.186 93.7523C66.1086 94.036 66.1074 94.3027 66.2151 94.5334L66.5776 94.3642C66.5228 94.2469 66.51 94.0843 66.5719 93.8576L66.186 93.7523ZM66.2159 94.5351C66.3816 94.8815 66.7723 95.1121 67.2968 95.2671L67.4101 94.8835C66.9137 94.7368 66.6663 94.5498 66.5767 94.3625L66.2159 94.5351ZM67.3056 95.2695L68.5063 95.5653L68.602 95.1769L67.4013 94.8811L67.3056 95.2695ZM68.506 95.5652C69.1828 95.733 69.6681 96.0017 69.9839 96.3567C70.297 96.7086 70.4598 97.1633 70.4598 97.7378H70.8598C70.8598 97.0824 70.6716 96.5278 70.2828 96.0909C69.8968 95.657 69.3292 95.3572 68.6023 95.177L68.506 95.5652ZM70.4598 97.7378C70.4598 98.4018 70.1853 98.9349 69.6189 99.3517L69.856 99.6738C70.5194 99.1857 70.8598 98.5355 70.8598 97.7378H70.4598ZM69.6195 99.3513C69.0563 99.7628 68.3572 99.974 67.51 99.974V100.374C68.4263 100.374 69.2121 100.144 69.8555 99.6742L69.6195 99.3513ZM67.51 99.974C66.7771 99.974 66.124 99.7509 65.5442 99.3024L65.2994 99.6187C65.9493 100.121 66.6885 100.374 67.51 100.374V99.974ZM65.5456 99.3035C64.9903 98.8656 64.7035 98.2894 64.682 97.5579L64.2822 97.5696C64.3071 98.4158 64.6468 99.1042 65.298 99.6176L65.5456 99.3035ZM64.4821 97.7637H65.9265V97.3637H64.4821V97.7637ZM65.729 97.5958C65.8084 98.0849 66.0664 98.449 66.4983 98.6649L66.6772 98.3072C66.3666 98.1519 66.1838 97.9011 66.1239 97.5317L65.729 97.5958ZM66.4832 98.6566C66.8846 98.9025 67.3569 99.0011 67.8894 98.964L67.8616 98.565C67.3963 98.5974 67.0102 98.5104 66.6923 98.3155L66.4832 98.6566ZM67.888 98.9641C68.2923 98.9388 68.6346 98.8171 68.8963 98.5829L68.6296 98.2848C68.4505 98.445 68.2012 98.5437 67.863 98.5649L67.888 98.9641ZM68.8963 98.5829C69.1562 98.3503 69.297 98.0562 69.3109 97.7109L68.9112 97.695C68.9018 97.9298 68.8106 98.1229 68.6296 98.2848L68.8963 98.5829ZM69.3108 97.7113C69.3248 97.3768 69.2102 97.0936 68.9597 96.8873L68.7054 97.1961C68.8494 97.3146 68.9204 97.4723 68.9112 97.6946L69.3108 97.7113ZM68.9597 96.8873C68.7324 96.7001 68.435 96.5677 68.079 96.4818L67.9852 96.8707C68.3021 96.9472 68.5383 97.0585 68.7054 97.1961L68.9597 96.8873ZM68.0777 96.4815L66.964 96.2205L66.8727 96.6099L67.9865 96.871L68.0777 96.4815Z" fill="#00B090"/>
<path d="M0.497 7V2.016H2.758C3.318 2.016 3.74733 2.149 4.046 2.415C4.34933 2.681 4.501 3.04267 4.501 3.5C4.501 3.95267 4.347 4.31433 4.039 4.585C3.73567 4.851 3.30867 4.984 2.758 4.984H1.589V7H0.497ZM1.589 4.151H2.618C2.90733 4.151 3.122 4.095 3.262 3.983C3.402 3.871 3.472 3.71233 3.472 3.507C3.472 3.297 3.402 3.136 3.262 3.024C3.12667 2.912 2.912 2.856 2.618 2.856H1.589V4.151ZM8.13591 6.622C7.96325 6.75733 7.75325 6.86467 7.50591 6.944C7.25858 7.01867 7.00891 7.056 6.75691 7.056C6.36025 7.056 6.01725 6.98133 5.72791 6.832C5.44325 6.68267 5.22391 6.47033 5.06991 6.195C4.91591 5.91967 4.83891 5.593 4.83891 5.215C4.83891 4.851 4.91358 4.529 5.06291 4.249C5.21225 3.969 5.41525 3.752 5.67191 3.598C5.93325 3.43933 6.23658 3.36 6.58191 3.36C6.91325 3.36 7.20025 3.43467 7.44291 3.584C7.68558 3.72867 7.87225 3.93633 8.00291 4.207C8.13358 4.473 8.19891 4.79033 8.19891 5.159V5.313H5.76991L5.78391 4.788H7.56891L7.29591 5.005C7.30058 4.70633 7.24225 4.48233 7.12091 4.333C7.00425 4.179 6.83391 4.102 6.60991 4.102C6.36725 4.102 6.17825 4.19067 6.04291 4.368C5.91225 4.54067 5.84691 4.795 5.84691 5.131C5.84691 5.52767 5.92391 5.81467 6.07791 5.992C6.23658 6.16933 6.47691 6.258 6.79891 6.258C6.98558 6.258 7.16991 6.22767 7.35191 6.167C7.53391 6.10633 7.70191 6.02 7.85591 5.908L8.13591 6.622ZM8.86255 7V4.466C8.86255 4.298 8.85788 4.13 8.84855 3.962C8.84388 3.78933 8.82988 3.619 8.80655 3.451H9.80055L9.91255 4.389L9.80055 4.333C9.85655 4.01567 9.98955 3.77533 10.1995 3.612C10.4142 3.44867 10.6569 3.367 10.9275 3.367C11.0069 3.367 11.0769 3.374 11.1375 3.388C11.2029 3.402 11.2589 3.41833 11.3055 3.437L11.2985 4.403C11.1259 4.32367 10.9532 4.284 10.7805 4.284C10.5892 4.284 10.4305 4.319 10.3045 4.389C10.1832 4.459 10.0875 4.55933 10.0175 4.69C9.95221 4.816 9.91955 4.96767 9.91955 5.145V7H8.86255ZM11.6833 4.242V3.451H14.1473V4.242H11.6833ZM14.2873 2.73C14.1519 2.69733 14.0376 2.681 13.9443 2.681C13.8463 2.681 13.7553 2.69967 13.6713 2.737C13.5873 2.77433 13.5219 2.835 13.4753 2.919C13.4286 3.003 13.4053 3.115 13.4053 3.255V7H12.3483V3.227C12.3483 2.78367 12.4603 2.43833 12.6843 2.191C12.9129 1.939 13.2466 1.813 13.6853 1.813C13.7926 1.813 13.8953 1.82 13.9933 1.834C14.0959 1.848 14.1939 1.87133 14.2873 1.904V2.73ZM16.4355 7.056C16.0528 7.056 15.7215 6.98133 15.4415 6.832C15.1615 6.68267 14.9445 6.47033 14.7905 6.195C14.6411 5.915 14.5665 5.586 14.5665 5.208C14.5665 4.83 14.6411 4.50333 14.7905 4.228C14.9445 3.95267 15.1615 3.74033 15.4415 3.591C15.7215 3.437 16.0528 3.36 16.4355 3.36C16.8088 3.36 17.1355 3.437 17.4155 3.591C17.6955 3.74033 17.9101 3.95267 18.0595 4.228C18.2135 4.50333 18.2905 4.83 18.2905 5.208C18.2905 5.586 18.2135 5.915 18.0595 6.195C17.9101 6.47033 17.6955 6.68267 17.4155 6.832C17.1355 6.98133 16.8088 7.056 16.4355 7.056ZM16.4355 6.251C16.6921 6.251 16.8905 6.167 17.0305 5.999C17.1705 5.82633 17.2405 5.56267 17.2405 5.208C17.2405 4.858 17.1705 4.599 17.0305 4.431C16.8905 4.25833 16.6921 4.172 16.4355 4.172C16.1741 4.172 15.9711 4.25833 15.8265 4.431C15.6865 4.599 15.6165 4.858 15.6165 5.208C15.6165 5.56267 15.6865 5.82633 15.8265 5.999C15.9665 6.167 16.1695 6.251 16.4355 6.251ZM18.9661 7V4.466C18.9661 4.298 18.9614 4.13 18.9521 3.962C18.9474 3.78933 18.9334 3.619 18.9101 3.451H19.9041L20.0161 4.389L19.9041 4.333C19.9601 4.01567 20.0931 3.77533 20.3031 3.612C20.5177 3.44867 20.7604 3.367 21.0311 3.367C21.1104 3.367 21.1804 3.374 21.2411 3.388C21.3064 3.402 21.3624 3.41833 21.4091 3.437L21.4021 4.403C21.2294 4.32367 21.0567 4.284 20.8841 4.284C20.6927 4.284 20.5341 4.319 20.4081 4.389C20.2867 4.459 20.1911 4.55933 20.1211 4.69C20.0557 4.816 20.0231 4.96767 20.0231 5.145V7H18.9661ZM21.8372 7V4.466C21.8372 4.298 21.8325 4.13 21.8232 3.962C21.8185 3.78933 21.8045 3.619 21.7812 3.451H22.7752L22.8522 4.144L22.7752 4.116C22.8732 3.878 23.0225 3.69367 23.2232 3.563C23.4285 3.42767 23.6735 3.36 23.9582 3.36C24.2802 3.36 24.5345 3.444 24.7212 3.612C24.9125 3.77533 25.0385 4.025 25.0992 4.361L24.9312 4.172C25.0338 3.92933 25.1972 3.73333 25.4212 3.584C25.6452 3.43467 25.8995 3.36 26.1842 3.36C26.5902 3.36 26.8912 3.48367 27.0872 3.731C27.2832 3.97833 27.3812 4.35167 27.3812 4.851V7H26.3242V4.886C26.3242 4.64333 26.2845 4.466 26.2052 4.354C26.1258 4.242 25.9952 4.186 25.8132 4.186C25.6032 4.186 25.4375 4.263 25.3162 4.417C25.1948 4.56633 25.1342 4.77633 25.1342 5.047V7H24.0772V4.886C24.0772 4.64333 24.0375 4.466 23.9582 4.354C23.8788 4.242 23.7505 4.186 23.5732 4.186C23.3585 4.186 23.1905 4.263 23.0692 4.417C22.9525 4.56633 22.8942 4.77633 22.8942 5.047V7H21.8372ZM29.6081 7.056C29.3001 7.056 29.0271 6.98133 28.7891 6.832C28.5511 6.68267 28.3668 6.47033 28.2361 6.195C28.1054 5.91967 28.0401 5.59767 28.0401 5.229C28.0401 4.86033 28.1054 4.536 28.2361 4.256C28.3714 3.97133 28.5558 3.752 28.7891 3.598C29.0271 3.43933 29.3001 3.36 29.6081 3.36C29.8928 3.36 30.1448 3.43 30.3641 3.57C30.5834 3.71 30.7328 3.899 30.8121 4.137L30.7281 4.193V3.451H31.7711V7H30.7281V6.272L30.8121 6.286C30.7328 6.52867 30.5834 6.71767 30.3641 6.853C30.1448 6.98833 29.8928 7.056 29.6081 7.056ZM29.9161 6.251C30.1728 6.251 30.3711 6.16233 30.5111 5.985C30.6558 5.80767 30.7281 5.551 30.7281 5.215C30.7281 4.879 30.6558 4.62233 30.5111 4.445C30.3711 4.263 30.1728 4.172 29.9161 4.172C29.6594 4.172 29.4564 4.26533 29.3071 4.452C29.1624 4.63867 29.0901 4.89767 29.0901 5.229C29.0901 5.56033 29.1601 5.81467 29.3001 5.992C29.4448 6.16467 29.6501 6.251 29.9161 6.251ZM32.6243 7V4.466C32.6243 4.298 32.6196 4.13 32.6103 3.962C32.6056 3.78933 32.5916 3.619 32.5683 3.451H33.5623L33.6393 4.144L33.5623 4.137C33.6836 3.885 33.8516 3.69367 34.0663 3.563C34.2856 3.42767 34.5376 3.36 34.8223 3.36C35.6576 3.36 36.0753 3.857 36.0753 4.851V7H35.0183V4.9C35.0183 4.648 34.9716 4.466 34.8783 4.354C34.7896 4.242 34.6473 4.186 34.4513 4.186C34.2179 4.186 34.0313 4.26067 33.8913 4.41C33.7513 4.55933 33.6813 4.76 33.6813 5.012V7H32.6243ZM38.5904 7.056C38.2077 7.056 37.8764 6.98133 37.5964 6.832C37.3164 6.68267 37.1017 6.47267 36.9524 6.202C36.8077 5.92667 36.7354 5.60233 36.7354 5.229C36.7354 4.85567 36.8147 4.529 36.9734 4.249C37.1321 3.969 37.3537 3.752 37.6384 3.598C37.9231 3.43933 38.2567 3.36 38.6394 3.36C38.8914 3.36 39.1387 3.39967 39.3814 3.479C39.6241 3.55833 39.8201 3.66567 39.9694 3.801L39.6894 4.536C39.5494 4.424 39.3954 4.33767 39.2274 4.277C39.0594 4.21167 38.8961 4.179 38.7374 4.179C38.4527 4.179 38.2287 4.26533 38.0654 4.438C37.9021 4.61067 37.8204 4.86733 37.8204 5.208C37.8204 5.55333 37.8997 5.81233 38.0584 5.985C38.2217 6.15767 38.4481 6.244 38.7374 6.244C38.8961 6.244 39.0594 6.21367 39.2274 6.153C39.3954 6.09233 39.5494 6.00367 39.6894 5.887L39.9694 6.622C39.8154 6.75733 39.6147 6.86467 39.3674 6.944C39.1201 7.01867 38.8611 7.056 38.5904 7.056ZM43.5939 6.622C43.4213 6.75733 43.2113 6.86467 42.9639 6.944C42.7166 7.01867 42.4669 7.056 42.2149 7.056C41.8183 7.056 41.4753 6.98133 41.1859 6.832C40.9013 6.68267 40.6819 6.47033 40.5279 6.195C40.3739 5.91967 40.2969 5.593 40.2969 5.215C40.2969 4.851 40.3716 4.529 40.5209 4.249C40.6703 3.969 40.8733 3.752 41.1299 3.598C41.3913 3.43933 41.6946 3.36 42.0399 3.36C42.3713 3.36 42.6583 3.43467 42.9009 3.584C43.1436 3.72867 43.3303 3.93633 43.4609 4.207C43.5916 4.473 43.6569 4.79033 43.6569 5.159V5.313H41.2279L41.2419 4.788H43.0269L42.7539 5.005C42.7586 4.70633 42.7003 4.48233 42.5789 4.333C42.4623 4.179 42.2919 4.102 42.0679 4.102C41.8253 4.102 41.6363 4.19067 41.5009 4.368C41.3703 4.54067 41.3049 4.795 41.3049 5.131C41.3049 5.52767 41.3819 5.81467 41.5359 5.992C41.6946 6.16933 41.9349 6.258 42.2569 6.258C42.4436 6.258 42.6279 6.22767 42.8099 6.167C42.9919 6.10633 43.1599 6.02 43.3139 5.908L43.5939 6.622ZM48.1023 7.063C47.8503 7.063 47.603 7.042 47.3603 7C47.1223 6.95333 46.8983 6.888 46.6883 6.804C46.4783 6.71533 46.2963 6.61033 46.1423 6.489L46.4993 5.705C46.7466 5.87767 47.0033 6.006 47.2693 6.09C47.5353 6.174 47.8153 6.216 48.1093 6.216C48.4266 6.216 48.6693 6.16467 48.8373 6.062C49.01 5.95933 49.0963 5.817 49.0963 5.635C49.0963 5.52767 49.0613 5.43667 48.9913 5.362C48.9213 5.28733 48.8093 5.222 48.6553 5.166C48.5013 5.11 48.296 5.054 48.0393 4.998C47.7173 4.93267 47.442 4.85567 47.2133 4.767C46.9846 4.67833 46.798 4.57567 46.6533 4.459C46.5133 4.34233 46.4106 4.207 46.3453 4.053C46.28 3.89433 46.2473 3.71233 46.2473 3.507C46.2473 3.213 46.329 2.94933 46.4923 2.716C46.6603 2.478 46.8913 2.29133 47.1853 2.156C47.484 2.02067 47.8316 1.953 48.2283 1.953C48.4663 1.953 48.6973 1.97633 48.9213 2.023C49.15 2.06967 49.36 2.135 49.5513 2.219C49.7426 2.303 49.9036 2.40567 50.0343 2.527L49.6843 3.311C49.4603 3.13833 49.227 3.01 48.9843 2.926C48.7416 2.842 48.4943 2.8 48.2423 2.8C47.9576 2.8 47.7313 2.85833 47.5633 2.975C47.3953 3.087 47.3113 3.241 47.3113 3.437C47.3113 3.54433 47.344 3.63533 47.4093 3.71C47.4746 3.78467 47.582 3.85233 47.7313 3.913C47.8853 3.969 48.0953 4.02733 48.3613 4.088C48.674 4.15333 48.9446 4.23033 49.1733 4.319C49.402 4.40767 49.5886 4.51033 49.7333 4.627C49.8826 4.739 49.9923 4.872 50.0623 5.026C50.1323 5.17533 50.1673 5.348 50.1673 5.544C50.1673 5.85667 50.0856 6.12733 49.9223 6.356C49.759 6.58 49.5233 6.755 49.2153 6.881C48.9073 7.00233 48.5363 7.063 48.1023 7.063ZM52.5699 7.056C52.1872 7.056 51.8559 6.98133 51.5759 6.832C51.2959 6.68267 51.0812 6.47267 50.9319 6.202C50.7872 5.92667 50.7149 5.60233 50.7149 5.229C50.7149 4.85567 50.7942 4.529 50.9529 4.249C51.1116 3.969 51.3332 3.752 51.6179 3.598C51.9026 3.43933 52.2362 3.36 52.6189 3.36C52.8709 3.36 53.1182 3.39967 53.3609 3.479C53.6036 3.55833 53.7996 3.66567 53.9489 3.801L53.6689 4.536C53.5289 4.424 53.3749 4.33767 53.2069 4.277C53.0389 4.21167 52.8756 4.179 52.7169 4.179C52.4322 4.179 52.2082 4.26533 52.0449 4.438C51.8816 4.61067 51.7999 4.86733 51.7999 5.208C51.7999 5.55333 51.8792 5.81233 52.0379 5.985C52.2012 6.15767 52.4276 6.244 52.7169 6.244C52.8756 6.244 53.0389 6.21367 53.2069 6.153C53.3749 6.09233 53.5289 6.00367 53.6689 5.887L53.9489 6.622C53.7949 6.75733 53.5942 6.86467 53.3469 6.944C53.0996 7.01867 52.8406 7.056 52.5699 7.056ZM56.1454 7.056C55.7627 7.056 55.4314 6.98133 55.1514 6.832C54.8714 6.68267 54.6544 6.47033 54.5004 6.195C54.3511 5.915 54.2764 5.586 54.2764 5.208C54.2764 4.83 54.3511 4.50333 54.5004 4.228C54.6544 3.95267 54.8714 3.74033 55.1514 3.591C55.4314 3.437 55.7627 3.36 56.1454 3.36C56.5187 3.36 56.8454 3.437 57.1254 3.591C57.4054 3.74033 57.6201 3.95267 57.7694 4.228C57.9234 4.50333 58.0004 4.83 58.0004 5.208C58.0004 5.586 57.9234 5.915 57.7694 6.195C57.6201 6.47033 57.4054 6.68267 57.1254 6.832C56.8454 6.98133 56.5187 7.056 56.1454 7.056ZM56.1454 6.251C56.4021 6.251 56.6004 6.167 56.7404 5.999C56.8804 5.82633 56.9504 5.56267 56.9504 5.208C56.9504 4.858 56.8804 4.599 56.7404 4.431C56.6004 4.25833 56.4021 4.172 56.1454 4.172C55.8841 4.172 55.6811 4.25833 55.5364 4.431C55.3964 4.599 55.3264 4.858 55.3264 5.208C55.3264 5.56267 55.3964 5.82633 55.5364 5.999C55.6764 6.167 55.8794 6.251 56.1454 6.251ZM58.676 7V4.466C58.676 4.298 58.6714 4.13 58.662 3.962C58.6574 3.78933 58.6434 3.619 58.62 3.451H59.614L59.726 4.389L59.614 4.333C59.67 4.01567 59.803 3.77533 60.013 3.612C60.2277 3.44867 60.4704 3.367 60.741 3.367C60.8204 3.367 60.8904 3.374 60.951 3.388C61.0164 3.402 61.0724 3.41833 61.119 3.437L61.112 4.403C60.9394 4.32367 60.7667 4.284 60.594 4.284C60.4027 4.284 60.244 4.319 60.118 4.389C59.9967 4.459 59.901 4.55933 59.831 4.69C59.7657 4.816 59.733 4.96767 59.733 5.145V7H58.676ZM64.6008 6.622C64.4281 6.75733 64.2181 6.86467 63.9708 6.944C63.7234 7.01867 63.4738 7.056 63.2218 7.056C62.8251 7.056 62.4821 6.98133 62.1928 6.832C61.9081 6.68267 61.6888 6.47033 61.5348 6.195C61.3808 5.91967 61.3038 5.593 61.3038 5.215C61.3038 4.851 61.3784 4.529 61.5278 4.249C61.6771 3.969 61.8801 3.752 62.1368 3.598C62.3981 3.43933 62.7014 3.36 63.0468 3.36C63.3781 3.36 63.6651 3.43467 63.9078 3.584C64.1504 3.72867 64.3371 3.93633 64.4678 4.207C64.5984 4.473 64.6638 4.79033 64.6638 5.159V5.313H62.2348L62.2488 4.788H64.0338L63.7608 5.005C63.7654 4.70633 63.7071 4.48233 63.5858 4.333C63.4691 4.179 63.2988 4.102 63.0748 4.102C62.8321 4.102 62.6431 4.19067 62.5078 4.368C62.3771 4.54067 62.3118 4.795 62.3118 5.131C62.3118 5.52767 62.3888 5.81467 62.5428 5.992C62.7014 6.16933 62.9418 6.258 63.2638 6.258C63.4504 6.258 63.6348 6.22767 63.8168 6.167C63.9988 6.10633 64.1668 6.02 64.3208 5.908L64.6008 6.622ZM66.6924 7.056C66.0157 7.056 65.4814 6.91133 65.0894 6.622L65.3764 5.887C65.5631 6.02233 65.7707 6.12733 65.9994 6.202C66.2327 6.272 66.4661 6.307 66.6994 6.307C66.8814 6.307 67.0214 6.279 67.1194 6.223C67.2174 6.16233 67.2664 6.08067 67.2664 5.978C67.2664 5.88933 67.2314 5.82167 67.1614 5.775C67.0914 5.72367 66.9677 5.677 66.7904 5.635L66.2094 5.495C65.8641 5.425 65.6097 5.30833 65.4464 5.145C65.2877 4.98167 65.2084 4.76467 65.2084 4.494C65.2084 4.27467 65.2714 4.081 65.3974 3.913C65.5281 3.74033 65.7077 3.605 65.9364 3.507C66.1651 3.409 66.4311 3.36 66.7344 3.36C66.9911 3.36 67.2384 3.39967 67.4764 3.479C67.7144 3.55367 67.9314 3.661 68.1274 3.801L67.8334 4.508C67.6514 4.382 67.4647 4.28633 67.2734 4.221C67.0867 4.15567 66.9047 4.123 66.7274 4.123C66.5547 4.123 66.4194 4.15333 66.3214 4.214C66.2234 4.27467 66.1744 4.35867 66.1744 4.466C66.1744 4.54533 66.2024 4.60833 66.2584 4.655C66.3191 4.70167 66.4241 4.74367 66.5734 4.781L67.1684 4.914C67.5324 4.998 67.7961 5.124 67.9594 5.292C68.1227 5.46 68.2044 5.684 68.2044 5.964C68.2044 6.3 68.0691 6.566 67.7984 6.762C67.5324 6.958 67.1637 7.056 66.6924 7.056Z" fill="#2F1C6A"/>
</svg>
