<svg width="18" height="19" viewBox="0 0 18 19" fill="none" xmlns="http://www.w3.org/2000/svg">
<path d="M9 1.90735e-06C4.0383 1.90735e-06 0 4.06201 0 9.05284C0 14.0437 4.0383 18.1057 9 18.1057C13.9617 18.1057 18 14.0437 18 9.05284C18 4.06201 13.9617 1.90735e-06 9 1.90735e-06Z" fill="#2F1C6A"/>
<path d="M16.1019 5.14835C16.7526 6.34554 17.0928 7.68841 17.091 9.05284C17.0913 10.4771 16.72 11.8764 16.014 13.111C15.308 14.3456 14.2921 15.372 13.068 16.0878L15.5394 8.90075C16.0011 7.74018 16.155 6.81045 16.155 5.98665C16.1553 5.70635 16.1376 5.42634 16.1019 5.14835ZM10.116 5.22711C10.4247 5.21184 10.7327 5.18527 11.0394 5.14745C11.4759 5.09041 11.4246 4.44585 10.989 4.46939C10.989 4.46939 9.6723 4.57078 8.829 4.57078C8.0307 4.57078 6.6915 4.45762 6.6915 4.45762C6.2532 4.43589 6.1965 5.10309 6.6366 5.12572C6.6366 5.12572 7.0407 5.17279 7.4808 5.19362L8.7399 8.6681L6.9624 14.0084L4.0158 5.20539C4.5027 5.18185 4.941 5.13025 4.941 5.13025C5.3793 5.07321 5.328 4.42865 4.8915 4.454C4.8915 4.454 3.582 4.55811 2.736 4.55811C2.5857 4.55811 2.4075 4.55177 2.2185 4.54634C3.6837 2.37637 6.1758 0.916149 9 0.916149C11.1069 0.916149 13.0239 1.72547 14.4639 3.05262C14.4297 3.05081 14.3955 3.04538 14.3586 3.04538C13.5639 3.04538 12.9996 3.74245 12.9996 4.49021C12.9996 5.16103 13.3839 5.72954 13.7943 6.39855C14.103 6.94263 14.4621 7.63879 14.4621 8.64456C14.4621 9.33529 14.1966 10.1491 13.8456 11.269L13.0392 13.9731L10.1142 5.21444L10.116 5.22711ZM9 17.1877C8.22625 17.1885 7.4564 17.0775 6.714 16.8582L9.1413 9.76258L11.628 16.6174C11.6469 16.6572 11.6658 16.6943 11.6865 16.7297C10.8232 17.0342 9.91487 17.1897 9 17.1895V17.1877ZM0.909 9.05284C0.907688 7.91169 1.14631 6.78316 1.6092 5.74131L5.4675 16.3775C4.10081 15.71 2.9485 14.6691 2.14235 13.3737C1.33621 12.0784 0.908797 10.581 0.909 9.05284ZM9 1.90735e-06C4.0383 1.90735e-06 0 4.06201 0 9.05284C0 14.0437 4.0383 18.1057 9 18.1057C13.9617 18.1057 18 14.0437 18 9.05284C18 4.06201 13.9617 1.90735e-06 9 1.90735e-06Z" fill="white"/>
</svg>
